<?xml version="1.0" encoding="UTF-8"?>
<svg id="layer" xmlns="http://www.w3.org/2000/svg" viewBox="0 0 85.7 80.8">
  <defs>
    <style>
      .cls-1 {
        fill: #010f3d;
      }

      .cls-2 {
        fill: #fff;
      }
    </style>
  </defs>
  <path class="cls-1" d="m64.33,77.27c-1.14,0-2.23-.43-3.05-1.2l-10.77-10.09c-.2-.19-.34-.44-.38-.72-.15-.99-.22-1.82-.22-2.61,0-2.05.39-4.08,1.16-6.02.15-.38.48-.67.88-.76.4-.09.82.02,1.12.31l10.73,10.06,11.98-15.48c.21-.28.53-.45.88-.48.35-.02.69.09.95.33,1.81,1.69,3.19,3.72,4.1,6.02.16.41.1.87-.17,1.22l-13.71,17.7c-.76.99-1.91,1.61-3.16,1.71h-.34Z"/>
  <g>
    <path class="cls-1" d="m43.9,50.75c-.09,0-.19-.01-.29-.03-.56-.13-.96-.63-.96-1.21v-10.03c0-.69.56-1.24,1.24-1.24h9.33c.56,0,1.05.37,1.2.91.15.54-.08,1.11-.56,1.4-3.8,2.27-6.87,5.56-8.86,9.53-.21.43-.65.68-1.11.68Zm1.24-10.03v4.42c1.22-1.64,2.62-3.12,4.19-4.42h-4.19Z"/>
    <path class="cls-1" d="m24.36,50.75h-10.04c-.69,0-1.24-.56-1.24-1.24v-10.03c0-.69.56-1.24,1.24-1.24h10.04c.69,0,1.24.56,1.24,1.24v10.03c0,.69-.56,1.24-1.24,1.24Zm-8.8-2.48h7.56v-7.55h-7.56v7.55Z"/>
    <path class="cls-1" d="m24.36,65.36h-10.04c-.69,0-1.24-.56-1.24-1.24v-10.04c0-.69.56-1.24,1.24-1.24h10.04c.69,0,1.24.56,1.24,1.24v10.04c0,.69-.56,1.24-1.24,1.24Zm-8.8-2.48h7.56v-7.56h-7.56v7.56Z"/>
    <path class="cls-1" d="m38.88,50.75h-10.04c-.69,0-1.24-.56-1.24-1.24v-10.03c0-.69.56-1.24,1.24-1.24h10.04c.69,0,1.24.56,1.24,1.24v10.03c0,.69-.56,1.24-1.24,1.24Zm-8.8-2.48h7.56v-7.55h-7.56v7.55Z"/>
    <path class="cls-1" d="m38.88,36.18h-10.04c-.69,0-1.24-.56-1.24-1.24v-10.03c0-.69.56-1.24,1.24-1.24h10.04c.69,0,1.24.56,1.24,1.24v10.03c0,.69-.56,1.24-1.24,1.24Zm-8.8-2.48h7.56v-7.55h-7.56v7.55Z"/>
    <path class="cls-1" d="m53.94,36.18h-10.04c-.69,0-1.24-.56-1.24-1.24v-10.03c0-.69.56-1.24,1.24-1.24h10.04c.69,0,1.24.56,1.24,1.24v10.03c0,.69-.56,1.24-1.24,1.24Zm-8.8-2.48h7.56v-7.55h-7.56v7.55Z"/>
    <path class="cls-1" d="m68.45,36.18h-10.04c-.69,0-1.24-.56-1.24-1.24v-10.03c0-.69.56-1.24,1.24-1.24h10.04c.69,0,1.24.56,1.24,1.24v10.03c0,.69-.56,1.24-1.24,1.24Zm-8.8-2.48h7.56v-7.55h-7.56v7.55Z"/>
    <path class="cls-2" d="m40.9,48.75c-.09,0-.19-.01-.29-.03-.56-.13-.96-.63-.96-1.21v-10.03c0-.69.56-1.24,1.24-1.24h9.33c.56,0,1.05.37,1.2.91.15.54-.08,1.11-.56,1.4-3.8,2.27-6.87,5.56-8.86,9.53-.21.43-.65.68-1.11.68Zm1.24-10.03v4.42c1.22-1.64,2.62-3.12,4.19-4.42h-4.19Z"/>
    <path class="cls-2" d="m55.34,10.1c1.15,0,2.09-.93,2.09-2.09V2.09c0-1.15-.94-2.09-2.09-2.09s-2.09.93-2.09,2.09v5.93c0,1.15.93,2.09,2.09,2.09Z"/>
    <path class="cls-2" d="m22.22,10.1c1.15,0,2.09-.93,2.09-2.09V2.09c0-1.15-.94-2.09-2.09-2.09s-2.09.93-2.09,2.09v5.93c0,1.15.93,2.09,2.09,2.09Z"/>
    <path class="cls-2" d="m40.93,72.11H4.59c-2.53,0-4.59-2.06-4.59-4.59V8.96c0-2.53,2.06-4.59,4.59-4.59h13.18c.69,0,1.24.56,1.24,1.24v3.69c0,1.89,1.54,3.42,3.43,3.42s3.42-1.54,3.42-3.42v-3.69c0-.69.56-1.24,1.24-1.24h23.56c.69,0,1.24.56,1.24,1.24v3.69c0,1.89,1.54,3.42,3.43,3.42s3.43-1.54,3.43-3.42v-3.69c0-.69.56-1.24,1.24-1.24h13.18c2.53,0,4.58,2.06,4.58,4.59v27.46c0,.43-.23.84-.6,1.06-.37.23-.84.24-1.22.04-1.59-.83-3.29-1.5-5.05-1.97-.54-.15-.92-.64-.92-1.2v-14.88H7.78v45.69h31.49c.56,0,1.05.37,1.2.91.41,1.49.94,2.92,1.58,4.25.19.38.16.84-.07,1.2-.23.36-.62.58-1.05.58ZM4.59,6.85c-1.16,0-2.1.94-2.1,2.11v58.55c0,1.16.94,2.11,2.1,2.11h34.44c-.25-.65-.49-1.31-.69-1.98H6.54c-.69,0-1.24-.56-1.24-1.24V18.23c0-.69.56-1.24,1.24-1.24h64.69c.69,0,1.24.56,1.24,1.24v15.19c.96.29,1.9.64,2.82,1.04V8.96c0-1.16-.94-2.11-2.1-2.11h-11.93v2.45c0,3.26-2.65,5.91-5.92,5.91s-5.92-2.65-5.92-5.91v-2.45h-21.08v2.45c0,3.26-2.65,5.91-5.91,5.91s-5.91-2.65-5.91-5.91v-2.45H4.59Z"/>
    <path class="cls-2" d="m21.36,48.75h-10.04c-.69,0-1.24-.56-1.24-1.24v-10.03c0-.69.56-1.24,1.24-1.24h10.04c.69,0,1.24.56,1.24,1.24v10.03c0,.69-.56,1.24-1.24,1.24Zm-8.8-2.48h7.56v-7.55h-7.56v7.55Z"/>
    <path class="cls-2" d="m21.36,63.36h-10.04c-.69,0-1.24-.56-1.24-1.24v-10.04c0-.69.56-1.24,1.24-1.24h10.04c.69,0,1.24.56,1.24,1.24v10.04c0,.69-.56,1.24-1.24,1.24Zm-8.8-2.48h7.56v-7.56h-7.56v7.56Z"/>
    <path class="cls-2" d="m35.88,48.75h-10.04c-.69,0-1.24-.56-1.24-1.24v-10.03c0-.69.56-1.24,1.24-1.24h10.04c.69,0,1.24.56,1.24,1.24v10.03c0,.69-.56,1.24-1.24,1.24Zm-8.8-2.48h7.56v-7.55h-7.56v7.55Z"/>
    <path class="cls-2" d="m35.88,34.18h-10.04c-.69,0-1.24-.56-1.24-1.24v-10.03c0-.69.56-1.24,1.24-1.24h10.04c.69,0,1.24.56,1.24,1.24v10.03c0,.69-.56,1.24-1.24,1.24Zm-8.8-2.48h7.56v-7.55h-7.56v7.55Z"/>
    <path class="cls-2" d="m50.94,34.18h-10.04c-.69,0-1.24-.56-1.24-1.24v-10.03c0-.69.56-1.24,1.24-1.24h10.04c.69,0,1.24.56,1.24,1.24v10.03c0,.69-.56,1.24-1.24,1.24Zm-8.8-2.48h7.56v-7.55h-7.56v7.55Z"/>
    <path class="cls-2" d="m65.45,34.18h-10.04c-.69,0-1.24-.56-1.24-1.24v-10.03c0-.69.56-1.24,1.24-1.24h10.04c.69,0,1.24.56,1.24,1.24v10.03c0,.69-.56,1.24-1.24,1.24Zm-8.8-2.48h7.56v-7.55h-7.56v7.55Z"/>
    <path class="cls-2" d="m35.88,63.36h-10.04c-.69,0-1.24-.56-1.24-1.24v-10.04c0-.69.56-1.24,1.24-1.24h10.04c.69,0,1.24.56,1.24,1.24v10.04c0,.69-.56,1.24-1.24,1.24Zm-8.8-2.48h7.56v-7.56h-7.56v7.56Z"/>
  </g>
  <path class="cls-2" d="m64.45,80.8c-11.72,0-21.26-9.54-21.26-21.26s9.54-21.26,21.26-21.26,21.25,9.53,21.25,21.26-9.53,21.26-21.25,21.26Zm0-39.87c-10.26,0-18.62,8.35-18.62,18.62s8.35,18.62,18.62,18.62,18.62-8.35,18.62-18.62-8.35-18.62-18.62-18.62Z"/>
  <path class="cls-2" d="m62.33,74.27c-1.14,0-2.23-.43-3.05-1.2l-10.77-10.09c-.2-.19-.34-.44-.38-.72-.15-.99-.22-1.82-.22-2.61,0-2.05.39-4.08,1.16-6.02.15-.38.48-.67.88-.76.4-.09.82.02,1.12.31l10.73,10.06,11.98-15.48c.21-.28.53-.45.88-.48.35-.02.69.09.95.33,1.81,1.69,3.19,3.72,4.1,6.02.16.41.1.87-.17,1.22l-13.71,17.7c-.76.99-1.91,1.61-3.16,1.71h-.34Zm-11.8-12.8l10.45,9.79c.36.34.85.53,1.34.53h.14c.56-.05,1.06-.32,1.4-.75l13.27-17.13c-.58-1.28-1.34-2.45-2.26-3.49l-11.94,15.43c-.21.28-.53.45-.88.48-.36.02-.69-.09-.95-.33l-10.29-9.65c-.27,1.09-.41,2.2-.41,3.32,0,.55.04,1.13.13,1.81Z"/>
</svg>