<?xml version="1.0" encoding="UTF-8"?>
<svg id="layer" xmlns="http://www.w3.org/2000/svg" viewBox="0 0 115.42 99.01">
  <defs>
    <style>
      .cls-1 {
        fill: #010f3d;
      }

      .cls-2 {
        fill: #fff;
      }
    </style>
  </defs>
  <path class="cls-1" d="m102.02,97.76c-.38,0-.76-.12-1.07-.38l-26.48-22.26c-.33-.27-.55-.67-.59-1.13-.05-.48.11-.98.43-1.36l9.1-10.82c.63-.75,1.74-.88,2.47-.28h0s26.47,22.26,26.47,22.26c.72.6.79,1.72.17,2.48l-9.11,10.83c-.36.43-.87.66-1.39.66Z"/>
  <path class="cls-1" d="m37.26,39.43c0,2.75,1.05,5.37,2.82,7.24-2.95,1.52-4.77,4.05-4.77,6.84,0,.69.56,1.24,1.24,1.24h19.47c.69,0,1.24-.56,1.24-1.24,0-2.79-1.81-5.32-4.77-6.84,1.77-1.87,2.82-4.49,2.82-7.24,0-5.54-4.05-10.04-9.03-10.04s-9.04,4.5-9.04,10.04Z"/>
  <g>
    <path class="cls-2" d="m43.57,70.01c-6.85,0-13.71-2.31-19.23-6.95-6.11-5.14-9.86-12.36-10.55-20.34-.69-7.98,1.76-15.73,6.9-21.85,5.14-6.11,12.36-9.86,20.34-10.55,7.98-.69,15.73,1.76,21.85,6.9,10.95,9.21,13.77,25.2,6.78,37.6l7.57,6.37-7.06,8.4-7.57-6.36c-5.48,4.51-12.26,6.77-19.03,6.77Zm.1-57.32c-.8,0-1.61.04-2.42.1-7.31.63-13.94,4.07-18.65,9.67-4.71,5.6-6.96,12.72-6.33,20.03.63,7.32,4.07,13.94,9.67,18.65,10.32,8.68,25.72,8.48,35.83-.47l.8-.71,7.29,6.13,3.87-4.6-7.29-6.13.56-.91c7.03-11.49,4.58-26.67-5.72-35.33-4.98-4.19-11.16-6.43-17.61-6.43Zm-.09,49.46c-5.17,0-10.13-1.8-14.13-5.17h0c-4.5-3.78-7.26-9.09-7.77-14.95-.51-5.86,1.3-11.56,5.08-16.06,3.78-4.5,9.09-7.26,14.95-7.77,5.86-.51,11.56,1.3,16.07,5.08,9.29,7.81,10.49,21.72,2.68,31.02-3.78,4.5-9.09,7.26-14.95,7.76-.65.06-1.29.08-1.93.08Zm.07-41.54c-.57,0-1.14.03-1.71.08-5.2.45-9.91,2.9-13.26,6.89-3.36,3.99-4.96,9.05-4.51,14.25.45,5.2,2.9,9.91,6.89,13.26h0c3.99,3.36,9.06,4.96,14.25,4.51,5.2-.45,9.91-2.9,13.26-6.89,6.93-8.24,5.86-20.59-2.38-27.52-3.55-2.99-7.95-4.58-12.54-4.58Z"/>
    <path class="cls-2" d="m98.02,96.76c-.38,0-.76-.12-1.07-.38l-26.48-22.26c-.33-.27-.55-.67-.59-1.13-.05-.48.11-.98.43-1.36l9.1-10.82c.63-.75,1.74-.88,2.47-.28h0s26.47,22.26,26.47,22.26c.72.6.79,1.72.17,2.48l-9.11,10.83c-.36.43-.87.66-1.39.66Zm-.51-2.26s0,0,0,0h0Zm-24.85-21.79l25.3,21.27,8.22-9.77-25.3-21.27-8.22,9.77Zm-.44.52h0s0,0,0,0Zm-.16-1.03l.02.02s-.02-.01-.02-.02Z"/>
  </g>
  <path class="cls-2" d="m73.63,44.66c.07-.48-.15-.95-.56-1.21-.58-.37-1.09-.84-1.53-1.37-.08,1.22-.23,2.45-.54,3.69-.07.26-.15.52-.22.78.6-.34,1.26-.64,1.99-.87.46-.14.8-.54.86-1.02Z"/>
  <path class="cls-2" d="m34.57,36.87c0,2.75,1.05,5.37,2.82,7.24-2.95,1.52-4.77,4.05-4.77,6.84,0,.69.56,1.24,1.24,1.24h19.47c.69,0,1.24-.56,1.24-1.24,0-2.79-1.81-5.32-4.77-6.84,1.77-1.87,2.82-4.49,2.82-7.24,0-5.54-4.05-10.04-9.03-10.04s-9.04,4.5-9.04,10.04Zm9.04-7.56c3.61,0,6.55,3.39,6.55,7.56,0,2.7-1.3,5.22-3.38,6.57-.4.26-.62.73-.56,1.21.07.48.4.87.86,1.02,2.48.77,4.25,2.28,4.82,4.04h-16.59c.57-1.75,2.34-3.27,4.82-4.04.46-.14.8-.54.86-1.02.07-.48-.15-.95-.56-1.21-2.09-1.35-3.39-3.87-3.39-6.57,0-4.17,2.94-7.56,6.55-7.56Z"/>
  <path class="cls-2" d="m54.95,22.89h-3.32c.18-.55.49-1.07.89-1.55-.75-.38-1.49-.78-2.2-1.21-.88,1.2-1.37,2.57-1.37,4.01,0,.69.56,1.24,1.24,1.24h8.1c-1.11-.84-2.21-1.67-3.34-2.48Z"/>
  <path class="cls-2" d="m66.14,17.3c1.77-1.87,2.82-4.49,2.82-7.24C68.95,4.52,64.9.02,59.92.02s-9.03,4.5-9.03,10.04c0,1.1.17,2.17.49,3.18.02,0,.05,0,.07.01.05.02.09.03.14.04.34.05.68.14,1.04.3.05.02.1.05.16.08.58.18,1.16.36,1.74.56-.72-1.22-1.15-2.66-1.15-4.17,0-4.17,2.94-7.56,6.55-7.56s6.55,3.39,6.55,7.56c0,2.7-1.3,5.22-3.38,6.57-.41.26-.62.73-.56,1.21.07.48.4.87.86,1.02,2.48.77,4.25,2.28,4.82,4.04h-1.61c.54.75.97,1.58,1.27,2.48h1.78c.69,0,1.24-.56,1.24-1.24,0-2.79-1.81-5.32-4.77-6.84Z"/>
  <path class="cls-2" d="m82.45,44.11c1.77-1.87,2.82-4.49,2.82-7.24,0-5.54-4.05-10.04-9.03-10.04-2.05,0-3.93.77-5.45,2.05.58.6.98,1.39,1.07,2.39,1.16-1.21,2.7-1.96,4.38-1.96,3.61,0,6.55,3.39,6.55,7.56,0,2.7-1.3,5.22-3.38,6.57-.41.26-.62.73-.56,1.21.07.48.4.87.86,1.02,2.48.77,4.25,2.28,4.82,4.04h-14.82c-.33.84-.7,1.67-1.1,2.48h17.36c.69,0,1.24-.56,1.24-1.24,0-2.79-1.81-5.32-4.77-6.84Z"/>
  <path class="cls-2" d="m66.13,72.21c1.37-1.44,2.29-3.33,2.65-5.37-.56-.2-1.1-.5-1.63-.93-.25-.2-.48-.41-.71-.63-.09,2.59-1.36,4.97-3.36,6.27-.41.26-.62.73-.56,1.21.07.48.4.87.86,1.02,2.48.77,4.25,2.28,4.82,4.04h-16.59c.57-1.75,2.34-3.27,4.82-4.04.46-.14.8-.54.86-1.02.07-.48-.15-.95-.56-1.21-1.67-1.08-2.82-2.91-3.22-4.99-.75.41-1.51.81-2.28,1.19.45,1.69,1.29,3.24,2.45,4.47-2.95,1.52-4.77,4.05-4.77,6.84,0,.69.56,1.24,1.24,1.24h19.48c.69,0,1.24-.56,1.24-1.24,0-2.79-1.81-5.32-4.77-6.84Z"/>
  <path class="cls-2" d="m57.49,55.97c-.12-.17-.23-.36-.32-.56-1.99.71-3.68,2.17-4.8,4.07,1.78-1.06,3.5-2.21,5.12-3.51Z"/>
  <path class="cls-2" d="m13.59,44.66c.07.48.4.87.86,1.02.65.2,1.24.45,1.78.75-.49-1.21-.91-2.45-1.14-3.74-.3.28-.61.54-.95.76-.41.26-.62.73-.56,1.21Z"/>
  <path class="cls-2" d="m17.51,49.71H2.69c.57-1.75,2.34-3.27,4.82-4.04.46-.14.8-.54.86-1.02.07-.48-.15-.95-.56-1.21-2.08-1.35-3.38-3.87-3.38-6.57,0-4.17,2.94-7.56,6.54-7.56,2.08,0,3.93,1.13,5.13,2.88.02-.09.03-.18.05-.27.22-.96.72-1.6,1.33-1.98-1.65-1.91-3.96-3.11-6.52-3.11-4.98,0-9.03,4.5-9.03,10.04,0,2.75,1.04,5.37,2.82,7.24-2.95,1.52-4.77,4.05-4.77,6.84,0,.69.56,1.24,1.24,1.24h17.16c-.32-.81-.62-1.64-.89-2.48Z"/>
  <path class="cls-2" d="m34.74,21.37c.38.47.67.98.85,1.51h-3.12c-1.14.86-2.33,1.67-3.54,2.48h8.11c.69,0,1.24-.56,1.24-1.24,0-1.47-.51-2.86-1.42-4.07-.71.44-1.41.88-2.11,1.32Z"/>
  <path class="cls-2" d="m20.64,24.94s0,0,0,0c.03-.06.06-.11.08-.17.28-.64.59-1.27.91-1.89h-2.62c.57-1.75,2.34-3.27,4.82-4.04.46-.14.8-.54.86-1.02.07-.48-.15-.95-.56-1.21-2.08-1.35-3.38-3.86-3.38-6.57,0-4.17,2.94-7.56,6.55-7.56s6.55,3.39,6.55,7.56c0,1.01-.18,1.99-.51,2.89.07-.02.13-.04.2-.05.65-.15,1.3-.09,1.89.11.2-.12.39-.24.59-.37.21-.84.32-1.7.32-2.58,0-5.54-4.05-10.04-9.03-10.04s-9.03,4.5-9.03,10.04c0,2.75,1.04,5.36,2.82,7.24-2.95,1.51-4.77,4.05-4.77,6.84,0,.69.56,1.24,1.24,1.24h2.9c.06-.14.12-.28.18-.42Z"/>
  <path class="cls-2" d="m35.13,59.99c-1.51-2.93-4.31-4.93-7.53-5.05,1.93,2.39,4.55,4.08,7.53,5.05Z"/>
  <path class="cls-2" d="m33.5,72.21c1.31-1.38,2.22-3.16,2.6-5.11-.81-.17-1.62-.37-2.42-.61-.39,2.1-1.54,3.95-3.23,5.04-.41.26-.62.73-.56,1.21.07.48.4.87.86,1.02,2.48.77,4.25,2.28,4.82,4.04h-16.59c.57-1.75,2.34-3.27,4.82-4.04.46-.14.8-.54.86-1.02.07-.48-.15-.95-.56-1.21-2.08-1.35-3.38-3.86-3.38-6.57,0-2.03.7-3.88,1.84-5.24-.55-.63-1.06-1.3-1.51-2.02-1.73,1.83-2.81,4.4-2.81,7.26s1.04,5.36,2.82,7.24c-2.95,1.52-4.77,4.05-4.77,6.84,0,.69.56,1.24,1.24,1.24h19.47c.69,0,1.24-.56,1.24-1.24,0-2.79-1.82-5.32-4.77-6.84Z"/>
</svg>