<?xml version="1.0" encoding="UTF-8"?>
<svg id="layer" xmlns="http://www.w3.org/2000/svg" viewBox="0 0 126 75.19">
  <defs>
    <style>
      .cls-1 {
        fill: #010f3d;
      }

      .cls-2 {
        fill: #fff;
      }
    </style>
  </defs>
  <path class="cls-1" d="m24.19,68.42c-13.2,0-20.05-2.15-20.33-2.24-.58-.19-.94-.77-.85-1.38.37-2.36,2.25-14.23,2.98-15.99.13-.32.4-.58.73-.7l9.92-3.57c.32-.12.68-.09.98.06.3.16.53.43.63.76l2.6,8.88.87-4.43-1.62-3.59c-.17-.38-.14-.83.09-1.18.23-.35.62-.57,1.04-.57h5.92c.42,0,.82.21,1.04.57.23.35.26.8.09,1.18l-1.63,3.59.87,4.44,2.61-8.89c.1-.33.32-.6.63-.76.3-.16.66-.18.98-.06l3.68,1.33c.59.21.93.83.79,1.44-1.15,5.19-2.88,16.03-3.38,19.23l-.08.49c-.09.56-.55,1-1.12,1.05-2.65.24-5.16.36-7.46.36Z"/>
  <path class="cls-1" d="m60.58,70.83c-13.38,0-27.28-2.96-27.42-2.99-.64-.14-1.07-.76-.96-1.41.31-1.96,3.04-19.27,4.03-21.68.13-.32.4-.58.73-.7l13.5-4.86c.32-.12.68-.09.98.06.31.16.53.43.63.76l4.06,13.86,1.56-7.98-2.27-5.02c-.17-.38-.14-.83.09-1.18.23-.35.62-.57,1.04-.57h8.07c.42,0,.81.21,1.04.57.23.35.26.8.09,1.18l-2.27,5.02,1.56,7.98,4.06-13.86c.1-.33.32-.6.63-.76.31-.16.66-.18.98-.06l13.5,4.86c.33.12.59.37.73.7.99,2.4,3.72,19.71,4.03,21.68.1.61-.27,1.19-.85,1.38-.39.12-9.64,3.03-27.54,3.03Z"/>
  <path class="cls-1" d="m96.96,68.42c-2.3,0-4.81-.12-7.45-.36-.57-.05-1.03-.48-1.12-1.04l-.11-.67c-1.46-9.2-2.59-15.62-3.35-19.06-.13-.61.2-1.22.79-1.44l3.68-1.33c.32-.12.68-.09.98.06.3.16.53.43.63.76l2.6,8.89.87-4.43-1.62-3.59c-.17-.38-.14-.83.09-1.18s.62-.57,1.04-.57h5.92c.42,0,.81.21,1.04.57.23.35.26.8.09,1.18l-1.62,3.59.87,4.43,2.6-8.88c.1-.33.32-.6.63-.76.31-.16.66-.18.98-.06l9.92,3.57c.33.12.6.37.73.7.72,1.76,2.61,13.63,2.98,15.99.1.6-.26,1.19-.85,1.38-.29.09-7.13,2.24-20.33,2.24Z"/>
  <path class="cls-2" d="m93.96,41.16c-2.57,0-6.01-1.15-8.06-6.48-.94-.31-1.95-1.25-2.67-3.59-.49-1.6-.48-2.85.04-3.8.18-.34.49-.74,1.01-1.07-.06-1.19-.14-3.43.04-4.97.15-1.26.75-1.92,1.22-2.26.33-.24.68-.37,1.01-.44.22-.66.66-1.48,1.54-2.17,1.62-1.26,4.06-1.52,7.28-.77,1.62.37,4.48,1.03,6,3.23.65.24,1.44.8,1.91,2.08.58,1.6.49,4.02.38,5.32.5.32.8.72.98,1.05.52.96.54,2.2.05,3.81-.72,2.33-1.73,3.28-2.67,3.59-2.06,5.33-5.49,6.48-8.06,6.48Zm-7.14-8.84c.53,0,1,.34,1.18.85,1.25,3.71,3.2,5.51,5.97,5.51s4.71-1.8,5.97-5.51c.18-.54.7-.88,1.27-.84.09-.01.65-.44,1.11-1.96.39-1.28.21-1.77.15-1.89-.03-.05-.1-.19-.46-.29-.54-.15-.91-.64-.91-1.2,0-.07,0-.14.02-.21h0c.12-.94.32-3.68-.17-5.02-.21-.57-.43-.6-.51-.61-.4-.05-.75-.29-.94-.64-.87-1.61-3.32-2.17-4.64-2.48-2.42-.56-4.2-.46-5.19.28-.78.59-.84,1.44-.84,1.48-.02.37-.2.71-.49.94-.29.22-.67.31-1.02.23-.05,0-.24,0-.32.06-.07.05-.15.21-.19.52-.21,1.75-.02,4.74,0,5.24,0,.08.01.16.01.22,0,.56-.37,1.04-.91,1.2-.36.1-.43.24-.46.29-.06.12-.24.61.15,1.89.51,1.64,1.01,1.96,1.12,1.96.03,0,.06,0,.1,0Z"/>
  <path class="cls-2" d="m21.19,41.16c-2.57,0-6.01-1.15-8.06-6.48-.94-.31-1.95-1.25-2.67-3.59-.49-1.6-.48-2.85.05-3.81.18-.33.48-.72.98-1.05-.1-1.3-.2-3.72.38-5.32.46-1.28,1.25-1.84,1.91-2.08,1.51-2.2,4.38-2.86,5.97-3.23,3.24-.75,5.69-.49,7.31.77.87.68,1.32,1.51,1.54,2.17.32.07.67.2,1.01.44.48.34,1.07,1,1.22,2.26.18,1.54.11,3.78.05,4.97.52.33.83.74,1.01,1.07.52.96.54,2.2.04,3.81-.71,2.34-1.73,3.28-2.67,3.59-2.05,5.33-5.48,6.48-8.06,6.48Zm-7.14-8.84c.53,0,1,.34,1.18.84,1.25,3.71,3.2,5.51,5.97,5.51s4.71-1.8,5.96-5.51c.18-.54.71-.88,1.27-.84.12.05.61-.32,1.12-1.96.4-1.28.22-1.77.15-1.89-.03-.05-.1-.19-.46-.29-.53-.15-.9-.64-.9-1.2,0-.06,0-.18.02-.24,0,0,0,0,0,0,.04-.58.21-3.48,0-5.2-.04-.31-.12-.48-.19-.53-.08-.06-.27-.06-.35-.05-.36.06-.74-.03-1.02-.26-.28-.23-.46-.57-.47-.93,0-.02-.06-.87-.84-1.46-.99-.74-2.77-.84-5.16-.29-1.35.31-3.81.88-4.67,2.48-.19.36-.55.6-.95.65-.08,0-.31.04-.51.61-.47,1.28-.3,3.91-.18,4.9.02.09.03.18.03.27,0,.56-.37,1.11-.9,1.26-.36.1-.43.24-.46.29-.06.12-.24.61.15,1.89.5,1.64,1.03,1.95,1.12,1.96.03,0,.06,0,.1,0Z"/>
  <path class="cls-2" d="m57.58,68.83c-13.38,0-27.28-2.96-27.42-2.99-.64-.14-1.07-.76-.96-1.41.31-1.96,3.04-19.27,4.03-21.68.13-.32.4-.58.73-.7l13.5-4.86c.32-.12.68-.09.98.06.31.16.53.43.63.76l4.06,13.86,1.56-7.98-2.27-5.02c-.17-.38-.14-.83.09-1.18.23-.35.62-.57,1.04-.57h8.07c.42,0,.81.21,1.04.57.23.35.26.8.09,1.18l-2.27,5.02,1.56,7.98,4.06-13.86c.1-.33.32-.6.63-.76.31-.16.66-.18.98-.06l13.5,4.86c.33.12.59.37.73.7.99,2.4,3.72,19.71,4.03,21.68.1.61-.27,1.19-.85,1.38-.39.12-9.64,3.03-27.54,3.03Zm-25.75-5.19c3.57.69,14.84,2.71,25.75,2.71,14.16,0,22.91-1.9,25.76-2.63-1.12-7.04-2.79-16.89-3.54-19.53l-11.69-4.21-5.12,17.48c-.16.55-.69.92-1.25.89-.57-.03-1.05-.44-1.16-1l-2.62-13.37c-.05-.25-.02-.52.09-.75l1.64-3.63h-4.22l1.64,3.63c.11.24.14.5.09.75l-2.62,13.37c-.11.56-.59.98-1.16,1-.56.03-1.09-.34-1.25-.89l-5.12-17.48-11.69,4.21c-.74,2.64-2.41,12.42-3.53,19.45Z"/>
  <path class="cls-2" d="m21.19,66.42c-13.2,0-20.05-2.15-20.33-2.24-.58-.19-.94-.77-.85-1.38.37-2.36,2.25-14.23,2.98-15.99.13-.32.4-.58.73-.7l9.92-3.57c.32-.12.68-.09.98.06.3.16.53.43.63.76l2.6,8.88.87-4.43-1.62-3.59c-.17-.38-.14-.83.09-1.18.23-.35.62-.57,1.04-.57h5.92c.42,0,.82.21,1.04.57.23.35.26.8.09,1.18l-1.63,3.59.87,4.44,2.61-8.89c.1-.33.32-.6.63-.76.3-.16.66-.18.98-.06l3.68,1.33c.59.21.93.83.79,1.44-1.15,5.19-2.88,16.03-3.38,19.23l-.08.49c-.09.56-.55,1-1.12,1.05-2.65.24-5.16.36-7.46.36Zm7.35-1.59h.01-.01Zm-25.9-2.74c2.33.58,8.62,1.85,18.55,1.85,1.95,0,4.05-.09,6.27-.26.55-3.46,2.01-12.56,3.11-17.84l-1.42-.51-3.67,12.51c-.16.55-.69.91-1.25.89-.57-.03-1.05-.44-1.16-1l-1.88-9.61-1.88,9.61c-.11.56-.59.98-1.16,1-.56.02-1.09-.34-1.25-.89l-3.66-12.51-8.1,2.92c-.54,2.07-1.72,8.97-2.5,13.85Zm17.51-17.14l1.18,2.81s.04.1.05.15c.02-.05.03-.1.05-.15l1.18-2.81h-2.46Z"/>
  <path class="cls-2" d="m93.96,66.42c-2.3,0-4.81-.12-7.45-.36-.57-.05-1.03-.48-1.12-1.04l-.11-.67c-1.46-9.2-2.59-15.62-3.35-19.06-.13-.61.2-1.22.79-1.44l3.68-1.33c.32-.12.68-.09.98.06.3.16.53.43.63.76l2.6,8.89.87-4.43-1.62-3.59c-.17-.38-.14-.83.09-1.18s.62-.57,1.04-.57h5.92c.42,0,.81.21,1.04.57.23.35.26.8.09,1.18l-1.62,3.59.87,4.43,2.6-8.88c.1-.33.32-.6.63-.76.31-.16.66-.18.98-.06l9.92,3.57c.33.12.6.37.73.7.72,1.76,2.61,13.63,2.98,15.99.1.6-.26,1.19-.85,1.38-.29.09-7.13,2.24-20.33,2.24Zm-6.27-2.75c2.21.18,4.32.26,6.27.26,9.96,0,16.23-1.27,18.55-1.85-.78-4.88-1.95-11.77-2.5-13.85l-8.1-2.92-3.66,12.51c-.16.55-.67.91-1.25.89-.57-.03-1.05-.44-1.16-1l-1.88-9.6-1.88,9.6c-.11.56-.59.98-1.16,1-.57.04-1.09-.34-1.25-.89l-3.66-12.51-1.42.51c.75,3.62,1.79,9.61,3.1,17.84Zm5.23-18.72l1,2.2s.03.08.04.11c.01-.04.03-.08.04-.11l.99-2.2h-2.08Z"/>
  <path class="cls-2" d="m57.58,34.45c-3.39,0-7.94-1.54-10.63-8.74-1.21-.31-2.57-1.47-3.55-4.65-.63-2.06-.63-3.64.02-4.83.33-.61.82-1.09,1.45-1.43-.08-1.51-.21-4.77.04-6.95.18-1.56.9-2.37,1.48-2.77.49-.35,1.01-.51,1.46-.57.25-.87.81-2.04,2.01-2.98,2.09-1.63,5.3-1.95,9.54-.97,2.18.51,6.04,1.4,7.97,4.34.82.26,1.86.93,2.46,2.6.8,2.19.61,5.7.47,7.32.62.34,1.09.82,1.42,1.42.65,1.19.65,2.77.02,4.83-.97,3.18-2.34,4.33-3.54,4.65-2.7,7.2-7.24,8.74-10.63,8.74Zm-9.72-11.13c.53,0,1,.34,1.18.85,1.75,5.18,4.62,7.81,8.54,7.81s6.77-2.55,8.55-7.81c.18-.54.7-.89,1.27-.84.63.03,1.41-1.12,1.98-2.98.41-1.33.47-2.37.17-2.92-.1-.18-.3-.44-.91-.62-.55-.16-.93-.68-.9-1.25,0-.06,0-.12.02-.18h0c.17-1.31.44-5.12-.25-7.03-.38-1.04-.88-1.1-1.07-1.12-.4-.05-.75-.29-.95-.65-1.27-2.36-4.72-3.16-6.58-3.59-3.46-.8-6.03-.63-7.48.47-1.09.83-1.27,1.96-1.3,2.26,0,.01,0,.03,0,.04,0,.79-.82,1.4-1.55,1.2-.11-.01-.5-.04-.76.15-.29.21-.4.67-.44,1.03-.28,2.4-.04,6.44,0,7.18,0,.05.01.1.02.15,0,.02,0,.12,0,.14,0,.56-.37,1.04-.9,1.19-.6.17-.81.43-.91.62-.3.55-.24,1.58.17,2.91.58,1.89,1.37,3.05,1.99,2.99.03,0,.06,0,.09,0Z"/>
</svg>