<?xml version="1.0" encoding="utf-8"?>
<!-- Generator: Adobe Illustrator 27.4.0, SVG Export Plug-In . SVG Version: 6.00 Build 0)  -->
<svg version="1.1" id="Camada_1" xmlns="http://www.w3.org/2000/svg" xmlns:xlink="http://www.w3.org/1999/xlink" x="0px" y="0px"
	 viewBox="0 0 96.89 96.89" style="enable-background:new 0 0 96.89 96.89;" xml:space="preserve">
<style type="text/css">
	.st0{fill:#FFFFFF;}
</style>
<g>
	<path class="st0" d="M96.89,61.14V35.75c0-1.74-1.29-3.15-2.87-3.15H73.37h-0.69c-1.1,0-2.11,0.69-2.59,1.78L59.52,47.14
		c-0.39,0.88-0.38,1.9,0.02,2.78l10.54,12.63c0.49,1.07,1.48,1.74,2.57,1.74h21.36C95.61,64.29,96.89,62.88,96.89,61.14z"/>
	<path class="st0" d="M34.39,26.79l12.75,10.58c0.88,0.39,1.91,0.38,2.78-0.02L62.55,26.8c1.06-0.49,1.74-1.48,1.74-2.57V2.87
		c0-1.58-1.41-2.87-3.15-2.87H35.75c-1.74,0-3.15,1.29-3.15,2.87v20.65v0.68C32.6,25.31,33.3,26.31,34.39,26.79z"/>
	<path class="st0" d="M62.5,70.1L49.75,59.53c-0.88-0.39-1.91-0.38-2.78,0.02L34.34,70.09c-1.06,0.49-1.74,1.48-1.74,2.57v21.36
		c0,1.58,1.41,2.87,3.15,2.87h25.39c1.74,0,3.15-1.28,3.15-2.87V73.38v-0.69C64.29,71.59,63.59,70.58,62.5,70.1z"/>
	<path class="st0" d="M37.35,46.97L26.8,34.34c-0.49-1.07-1.48-1.74-2.57-1.74H2.87C1.29,32.6,0,34.01,0,35.75v25.38
		c0,1.74,1.29,3.15,2.87,3.15h20.65h0.69c1.1,0,2.11-0.7,2.59-1.78l10.58-12.75C37.75,48.87,37.74,47.84,37.35,46.97z"/>
</g>
</svg>
