<?xml version="1.0" encoding="UTF-8"?><svg id="uuid-d5658d5f-1a03-412d-a01f-aff5bc14f444" xmlns="http://www.w3.org/2000/svg" viewBox="0 0 200 200"><defs><style>.uuid-945e4b42-ae53-4bbb-ad8d-2fee70eeb966{fill:#fff;}</style></defs><g><path class="uuid-945e4b42-ae53-4bbb-ad8d-2fee70eeb966" d="m99.94,198.58c-52.58,0-95.83-41.1-98.45-93.58-.09-1.86,1.34-3.44,3.19-3.53,1.94-.08,3.44,1.34,3.53,3.19,2.45,48.89,42.73,87.18,91.73,87.18,20.24,0,39.43-6.45,55.5-18.66,1.48-1.12,3.59-.84,4.71.64,1.13,1.48.84,3.59-.64,4.71-17.25,13.1-37.85,20.03-59.57,20.03Z"/><path class="uuid-945e4b42-ae53-4bbb-ad8d-2fee70eeb966" d="m6.13,87.01c-.19,0-.39-.02-.58-.05-1.83-.32-3.06-2.06-2.74-3.89C7.28,57.25,22.27,33.85,43.93,18.87c1.53-1.05,3.62-.67,4.68.85,1.06,1.53.67,3.63-.85,4.68C27.58,38.37,13.61,60.17,9.44,84.22c-.28,1.64-1.7,2.79-3.31,2.79Z"/><path class="uuid-945e4b42-ae53-4bbb-ad8d-2fee70eeb966" d="m81.18,10c-1.57,0-2.98-1.11-3.3-2.71-.37-1.82.82-3.59,2.64-3.96,1.81-.36,3.65-.68,5.5-.94,1.83-.27,3.54,1.02,3.8,2.86.26,1.84-1.02,3.54-2.86,3.8-1.72.24-3.43.54-5.12.87-.22.04-.44.07-.66.07Z"/><path class="uuid-945e4b42-ae53-4bbb-ad8d-2fee70eeb966" d="m62.18,15.94c-1.3,0-2.54-.76-3.09-2.03-.74-1.71.05-3.69,1.75-4.43,2.11-.91,4.27-1.76,6.41-2.51,1.75-.61,3.68.31,4.29,2.06.62,1.75-.31,3.68-2.06,4.29-2,.7-4,1.49-5.97,2.34-.44.19-.89.28-1.34.28Z"/><path class="uuid-945e4b42-ae53-4bbb-ad8d-2fee70eeb966" d="m45.85,25c-1.07,0-2.12-.51-2.77-1.45-1.06-1.53-.68-3.63.85-4.68,1.53-1.06,3.08-2.07,4.67-3.04,1.58-.97,3.66-.47,4.62,1.12.97,1.59.47,3.66-1.12,4.62-1.48.9-2.93,1.85-4.35,2.83-.58.4-1.25.6-1.91.6Z"/><path class="uuid-945e4b42-ae53-4bbb-ad8d-2fee70eeb966" d="m195.15,103.37c-1.86,0-3.37-1.51-3.37-3.37,0-50.64-41.2-91.85-91.85-91.85-4.34,0-8.71.3-12.97.91-1.83.28-3.54-1.02-3.8-2.86s1.02-3.54,2.86-3.8c4.58-.65,9.26-.98,13.91-.98,54.36,0,98.58,44.22,98.58,98.58,0,1.86-1.51,3.37-3.37,3.37Z"/><path class="uuid-945e4b42-ae53-4bbb-ad8d-2fee70eeb966" d="m157.48,179.23c-1.02,0-2.02-.46-2.68-1.33-1.13-1.48-.84-3.59.64-4.71,1.38-1.05,2.73-2.13,4.05-3.25,1.42-1.21,3.54-1.03,4.74.38,1.21,1.41,1.04,3.54-.38,4.74-1.41,1.2-2.86,2.37-4.34,3.49-.61.46-1.32.69-2.03.69Z"/><path class="uuid-945e4b42-ae53-4bbb-ad8d-2fee70eeb966" d="m174.96,161.99c-.73,0-1.46-.23-2.07-.72-1.46-1.15-1.72-3.26-.58-4.73,1.9-2.42,3.69-4.97,5.34-7.58.99-1.57,3.07-2.04,4.64-1.05,1.57.99,2.04,3.07,1.05,4.64-1.77,2.8-3.69,5.54-5.73,8.14-.67.85-1.65,1.29-2.65,1.29Zm14.1-25.06c-.39,0-.8-.07-1.19-.22-1.74-.66-2.62-2.6-1.96-4.34,1.08-2.87,2.04-5.85,2.83-8.83.47-1.8,2.33-2.86,4.11-2.39,1.8.48,2.87,2.32,2.39,4.11-.85,3.21-1.87,6.4-3.03,9.48-.51,1.35-1.79,2.18-3.15,2.18Z"/><path class="uuid-945e4b42-ae53-4bbb-ad8d-2fee70eeb966" d="m195,108.75c-.06,0-.13,0-.19,0-1.86-.11-3.28-1.69-3.17-3.55.1-1.72.14-3.45.14-5.19,0-1.86,1.51-3.37,3.37-3.37s3.37,1.51,3.37,3.37-.05,3.73-.15,5.57c-.1,1.79-1.59,3.18-3.36,3.18Z"/></g><g><path class="uuid-945e4b42-ae53-4bbb-ad8d-2fee70eeb966" d="m133.12,102.65c-3.68,0-5.84-1.67-6.57-2.37-1.64-1.36-22.1-18.34-31.28-23.49-1.31-.74-2.56-.89-3.93-.48-4.35,1.3-8.42,7.6-9.62,9.91-.89,1.71-3,2.39-4.71,1.5-1.72-.89-2.39-2.99-1.51-4.71.58-1.12,5.86-11.01,13.82-13.41,3.18-.96,6.42-.58,9.38,1.07,10.08,5.66,31.54,23.55,32.45,24.31.18.15.17.1.26.23.22.15.94.53,2.27.4,2.38-.24,7.6-2.2,15.94-12.67,1.2-1.51,3.41-1.76,4.92-.56,1.51,1.2,1.76,3.41.56,4.92-7.9,9.92-15.13,15.08-21.49,15.32-.16,0-.32,0-.48,0Z"/><path class="uuid-945e4b42-ae53-4bbb-ad8d-2fee70eeb966" d="m131.68,84.73c-7.6,0-13.78-6.18-13.78-13.78s6.18-13.78,13.78-13.78,13.78,6.18,13.78,13.78-6.18,13.78-13.78,13.78Zm0-20.55c-3.74,0-6.78,3.04-6.78,6.78s3.04,6.78,6.78,6.78,6.78-3.04,6.78-6.78-3.04-6.78-6.78-6.78Z"/><path class="uuid-945e4b42-ae53-4bbb-ad8d-2fee70eeb966" d="m105.92,64.18h-36.27c-1.93,0-3.5-1.57-3.5-3.5s1.57-3.5,3.5-3.5h36.27c1.93,0,3.5,1.57,3.5,3.5s-1.57,3.5-3.5,3.5Z"/><path class="uuid-945e4b42-ae53-4bbb-ad8d-2fee70eeb966" d="m69.65,78.45h-19.1c-1.93,0-3.5-1.57-3.5-3.5s1.57-3.5,3.5-3.5h19.1c1.93,0,3.5,1.57,3.5,3.5s-1.57,3.5-3.5,3.5Z"/><path class="uuid-945e4b42-ae53-4bbb-ad8d-2fee70eeb966" d="m70.62,94.89h-18.38c-1.93,0-3.5-1.57-3.5-3.5s1.57-3.5,3.5-3.5h18.38c1.93,0,3.5,1.57,3.5,3.5s-1.57,3.5-3.5,3.5Z"/><path class="uuid-945e4b42-ae53-4bbb-ad8d-2fee70eeb966" d="m72.31,110.12h-24.66c-1.93,0-3.5-1.57-3.5-3.5s1.57-3.5,3.5-3.5h24.66c1.93,0,3.5,1.57,3.5,3.5s-1.57,3.5-3.5,3.5Z"/><path class="uuid-945e4b42-ae53-4bbb-ad8d-2fee70eeb966" d="m74.66,136.58c-.1,0-.2,0-.3,0-5.21-.13-8.78-3.7-9.41-4.38l-13.38-13.56c-1.36-1.38-1.34-3.59.03-4.95,1.38-1.36,3.59-1.34,4.95.03l13.42,13.6s.07.07.11.11h0s2,2.11,4.5,2.15c1.54.02,3.03-.74,4.57-2.28,7.4-7.4,39.18-36.56,40.53-37.8,1.42-1.31,3.64-1.21,4.95.21,1.31,1.42,1.21,3.64-.21,4.95-.33.3-33.02,30.3-40.31,37.59-2.87,2.87-6.05,4.33-9.44,4.33Z"/><path class="uuid-945e4b42-ae53-4bbb-ad8d-2fee70eeb966" d="m118.08,152.32s-.02,0-.03,0c-1.93-.02-3.49-1.6-3.47-3.53,0-.21.18-20.82,0-25.22-.09-2.35-.12-2.99-4.48-2.99s-17.23,0-24.78-7.55c-6.62-6.62-2-15.21,1.37-18.83l16.75-17c1.36-1.38,3.57-1.39,4.95-.04,1.38,1.36,1.39,3.57.04,4.95l-16.64,16.88c-.45.5-4.93,5.67-1.52,9.08,5.5,5.5,16.29,5.5,19.83,5.5,4.76,0,11.13,1.01,11.48,9.71.18,4.57.01,24.7,0,25.56-.02,1.92-1.58,3.47-3.5,3.47Z"/></g></svg>