<?xml version="1.0" encoding="UTF-8"?><svg id="uuid-f521fe51-e9a8-4430-ab3f-0f8f9b08ce1d" xmlns="http://www.w3.org/2000/svg" viewBox="0 0 200 200"><defs><style>.uuid-12c2634d-7d5e-469c-b06a-76144221a406{fill:#fff;}</style></defs><g><path class="uuid-12c2634d-7d5e-469c-b06a-76144221a406" d="m99.94,198.58c-52.58,0-95.83-41.1-98.45-93.58-.09-1.86,1.34-3.44,3.19-3.53,1.94-.08,3.44,1.34,3.53,3.19,2.45,48.89,42.73,87.18,91.73,87.18,20.24,0,39.43-6.45,55.5-18.66,1.48-1.12,3.59-.84,4.71.64,1.13,1.48.84,3.59-.64,4.71-17.25,13.1-37.85,20.03-59.57,20.03Z"/><path class="uuid-12c2634d-7d5e-469c-b06a-76144221a406" d="m6.13,87.01c-.19,0-.39-.02-.58-.05-1.83-.32-3.06-2.06-2.74-3.89C7.28,57.25,22.27,33.85,43.93,18.87c1.53-1.05,3.62-.67,4.68.85,1.06,1.53.67,3.63-.85,4.68C27.58,38.37,13.61,60.17,9.44,84.22c-.28,1.64-1.7,2.79-3.31,2.79Z"/><path class="uuid-12c2634d-7d5e-469c-b06a-76144221a406" d="m81.18,10c-1.57,0-2.98-1.11-3.3-2.71-.37-1.82.82-3.59,2.64-3.96,1.81-.36,3.65-.68,5.5-.94,1.83-.27,3.54,1.02,3.8,2.86.26,1.84-1.02,3.54-2.86,3.8-1.72.24-3.43.54-5.12.87-.22.04-.44.07-.66.07Z"/><path class="uuid-12c2634d-7d5e-469c-b06a-76144221a406" d="m62.18,15.94c-1.3,0-2.54-.76-3.09-2.03-.74-1.71.05-3.69,1.75-4.43,2.11-.91,4.27-1.76,6.41-2.51,1.75-.61,3.68.31,4.29,2.06.62,1.75-.31,3.68-2.06,4.29-2,.7-4,1.49-5.97,2.34-.44.19-.89.28-1.34.28Z"/><path class="uuid-12c2634d-7d5e-469c-b06a-76144221a406" d="m45.85,25c-1.07,0-2.12-.51-2.77-1.45-1.06-1.53-.68-3.63.85-4.68,1.53-1.06,3.08-2.07,4.67-3.04,1.58-.97,3.66-.47,4.62,1.12.97,1.59.47,3.66-1.12,4.62-1.48.9-2.93,1.85-4.35,2.83-.58.4-1.25.6-1.91.6Z"/><path class="uuid-12c2634d-7d5e-469c-b06a-76144221a406" d="m195.15,103.37c-1.86,0-3.37-1.51-3.37-3.37,0-50.64-41.2-91.85-91.85-91.85-4.34,0-8.71.3-12.97.91-1.83.28-3.54-1.02-3.8-2.86s1.02-3.54,2.86-3.8c4.58-.65,9.26-.98,13.91-.98,54.36,0,98.58,44.22,98.58,98.58,0,1.86-1.51,3.37-3.37,3.37Z"/><path class="uuid-12c2634d-7d5e-469c-b06a-76144221a406" d="m157.48,179.23c-1.02,0-2.02-.46-2.68-1.33-1.13-1.48-.84-3.59.64-4.71,1.38-1.05,2.73-2.13,4.05-3.25,1.42-1.21,3.54-1.03,4.74.38,1.21,1.41,1.04,3.54-.38,4.74-1.41,1.2-2.86,2.37-4.34,3.49-.61.46-1.32.69-2.03.69Z"/><path class="uuid-12c2634d-7d5e-469c-b06a-76144221a406" d="m174.96,161.99c-.73,0-1.46-.23-2.07-.72-1.46-1.15-1.72-3.26-.58-4.73,1.9-2.42,3.69-4.97,5.34-7.58.99-1.57,3.07-2.04,4.64-1.05,1.57.99,2.04,3.07,1.05,4.64-1.77,2.8-3.69,5.54-5.73,8.14-.67.85-1.65,1.29-2.65,1.29Zm14.1-25.06c-.39,0-.8-.07-1.19-.22-1.74-.66-2.62-2.6-1.96-4.34,1.08-2.87,2.04-5.85,2.83-8.83.47-1.8,2.33-2.86,4.11-2.39,1.8.48,2.87,2.32,2.39,4.11-.85,3.21-1.87,6.4-3.03,9.48-.51,1.35-1.79,2.18-3.15,2.18Z"/><path class="uuid-12c2634d-7d5e-469c-b06a-76144221a406" d="m195,108.75c-.06,0-.13,0-.19,0-1.86-.11-3.28-1.69-3.17-3.55.1-1.72.14-3.45.14-5.19,0-1.86,1.51-3.37,3.37-3.37s3.37,1.51,3.37,3.37-.05,3.73-.15,5.57c-.1,1.79-1.59,3.18-3.36,3.18Z"/></g><g><path class="uuid-12c2634d-7d5e-469c-b06a-76144221a406" d="m54.41,73.79c.11.06.19.11.26.14.15.08.32.15.47.2,87.41,28.56,88.26,28.84,88.26,28.84,1.44.46,2.9.69,4.34.69,5.98,0,11.55-3.82,13.49-9.81,2.4-7.43-1.7-15.43-9.13-17.83-.2-.07-.41-.13-.62-.18,0-.31-.02-.62-.04-.93,0-.22,0-.45-.03-.67-.02-.21-.05-.42-.07-.63-.04-.39-.09-.78-.16-1.17-.03-.16-.06-.32-.1-.48-.09-.45-.2-.9-.32-1.34-.03-.11-.06-.21-.09-.32-.16-.54-.34-1.08-.55-1.6,0,0,0-.02,0-.02-.45-1.13-1-2.21-1.65-3.23-.04-.06-.08-.11-.11-.17-.28-.42-.57-.83-.87-1.23-.08-.11-.17-.22-.25-.32-.28-.35-.58-.69-.88-1.02-.1-.11-.19-.22-.29-.32-.39-.4-.78-.78-1.21-1.15-.02-.02-.04-.04-.06-.05-.43-.37-.88-.72-1.34-1.05-.16-.12-.33-.22-.5-.34-.32-.21-.64-.42-.97-.62-.19-.11-.38-.22-.58-.32-.35-.19-.7-.36-1.06-.53-.18-.08-.35-.17-.53-.25-.55-.23-1.1-.45-1.68-.64-.5-.16-1.01-.3-1.52-.42-.1-.02-.2-.04-.3-.06-.42-.09-.83-.17-1.25-.24-.04,0-.08,0-.12-.01-2.99-.43-6.06-.15-8.93.83-1.54-7.58-6.98-13.69-14.45-16.1-5.79-1.87-11.99-1.2-17.23,1.79-.03.02-.07.03-.1.05-.09.05-.17.11-.26.17-.11.07-.22.13-.33.2,0,0-.01,0-.02-.01-5.16-2.98-11.49-3.05-16.69-.22-.04-.04-.09-.07-.13-.1-.41-.37-.84-.73-1.28-1.07-.12-.09-.23-.18-.35-.27-.54-.39-1.1-.77-1.68-1.1-4.4-2.54-9.53-3.22-14.44-1.9-4.91,1.32-9.02,4.47-11.56,8.87-.03.05-.05.11-.08.16-.29.52-.57,1.05-.81,1.6-.13.28-.22.57-.34.86-.12.3-.25.6-.36.91,0,0,0,0,0,0,0,.01,0,.02,0,.04-.01.04-.04.08-.05.13h0c-1.12,3.47-1.21,7.18-.25,10.74,1.32,4.91,4.46,9.01,8.83,11.54Zm30.12-18.53c-.34,1.05-.6,2.12-.77,3.2-.26,1.61.84,3.13,2.45,3.39.16.03.32.04.48.04.62,0,1.22-.19,1.73-.56.64-.46,1.06-1.15,1.18-1.92.65-3.98,2.87-7.6,6.05-9.99.07-.05.14-.11.22-.16.39-.29.8-.56,1.22-.8,3.81-2.24,8.4-2.77,12.65-1.4,6.03,1.94,10.18,7.24,10.72,13.45-1.63,1.25-3.08,2.77-4.26,4.53-.15.23-.28.48-.36.74-.4,1.25.08,2.63,1.17,3.36,1.35.91,3.19.54,4.1-.81,1.12-1.67,2.57-3.01,4.23-3.99.25-.15.5-.29.76-.42.19-.1.37-.19.57-.27.18-.08.36-.16.54-.23.8-.32,1.62-.57,2.47-.73.13-.03.26-.05.39-.07.26-.04.53-.08.8-.11.15-.02.3-.02.46-.03.39-.03.78-.04,1.17-.03.25,0,.49,0,.74.03.19.01.37.04.56.06.27.03.54.07.82.12.15.03.3.05.46.09.43.09.85.2,1.27.33.42.14.83.29,1.23.47.09.04.17.08.26.12.32.15.63.3.93.47.07.04.13.08.2.12.32.19.64.38.94.6.03.02.06.04.09.06,2.82,2.01,4.72,5.03,5.37,8.37.02.13.04.27.06.4.04.24.07.48.1.72.03.29.05.59.06.89,0,.08,0,.16,0,.23.01.78-.04,1.57-.17,2.37,0,0,0,.02,0,.03-.11.66-.25,1.32-.46,1.98-.6,1.85-1.56,3.5-2.85,4.92-1.1,1.2-1.02,3.07.18,4.18.57.52,1.28.77,2,.77.8,0,1.6-.32,2.18-.96,1.86-2.03,3.24-4.41,4.1-7.05,4.16,1.5,6.43,6.05,5.06,10.29-1.4,4.33-6.05,6.71-10.37,5.32l-71.83-23.47c1.27-.74,2.49-1.62,3.62-2.69,1.18-1.12,1.24-3,.12-4.18-1.12-1.18-2.99-1.24-4.18-.12-2.98,2.81-6.79,3.99-10.72,3.35l-5-1.63c-2.95-1.76-5.06-4.55-5.95-7.87-.68-2.53-.59-5.13.23-7.56.1-.3.22-.59.35-.89.05-.11.08-.23.13-.34.18-.4.38-.79.6-1.18,1.75-3.04,4.58-5.21,7.97-6.11,1.62-.43,3.28-.55,4.89-.36,1.76.2,3.48.76,5.06,1.67,1.38.8,2.6,1.84,3.63,3.11.03.03.06.06.08.09.98,1.23,1.73,2.63,2.22,4.15.4,1.25,1.57,2.06,2.82,2.06.3,0,.6-.05.9-.14,1.55-.5,2.41-2.16,1.91-3.72-.38-1.17-.86-2.29-1.45-3.35,2.55-1.11,5.42-1.22,8.07-.3-1.85,2.15-3.29,4.65-4.18,7.41Z"/><path class="uuid-12c2634d-7d5e-469c-b06a-76144221a406" d="m99.42,77.26c.3.1.61.14.91.14.46,0,.92-.11,1.34-.33.7-.36,1.22-.97,1.47-1.72.5-1.55-.35-3.22-1.91-3.72-1.13-.37-1.76-1.58-1.39-2.72.29-.91,1.14-1.47,2.08-1.5,1.62-.02,2.97-1.28,3-2.92.02-1.63-1.29-2.97-2.92-3-.04,0-.07,0-.11,0-3.52,0-6.59,2.24-7.68,5.59-.66,2.05-.48,4.24.5,6.16.98,1.92,2.65,3.34,4.7,4Z"/><path class="uuid-12c2634d-7d5e-469c-b06a-76144221a406" d="m127.67,89.35c.89.29,1.81.43,2.73.43,1.2,0,2.41-.25,3.53-.73.72-.31,1.28-.89,1.57-1.62.29-.74.28-1.54-.04-2.27-.65-1.5-2.39-2.19-3.89-1.54-.66.29-1.41.32-2.1.1-1.25-.4-2.1-1.6-2.07-2.92.05-1.63-1.24-2.99-2.87-3.04-1.3-.05-2.5.8-2.9,2.04-.09.26-.13.54-.14.83-.11,3.92,2.42,7.51,6.16,8.71Z"/><path class="uuid-12c2634d-7d5e-469c-b06a-76144221a406" d="m46.19,94.54l1.54.5c.27.9.96,1.66,1.92,1.98l6.92,2.23,72.71,23.47c.05.02.1.02.15.04.06.02.13.03.19.05.18.04.37.06.55.06,0,0,0,0,0,0,0,0,0,0,0,0,0,0,0,0,0,0,0,0,.01,0,.02,0,.12,0,.24,0,.36-.02l12.1-1.59c1.13-.15,2.08-.94,2.43-2.02s.04-2.28-.79-3.06l-8.89-8.36s-.03-.02-.05-.04c-.17-.15-.35-.29-.54-.4-.04-.02-.08-.03-.12-.05-.13-.07-.26-.13-.41-.18l-72.71-23.47-6.92-2.23c-.96-.31-1.97-.1-2.72.48l-1.54-.5c-3.62-1.17-7.52.83-8.68,4.45-1.17,3.62.83,7.52,4.45,8.68Zm88.36,21.5l.24-.74.94.89-1.28.17.1-.32Zm-78.98-27.73l.11-.34,1.3.42-.7,2.16-.7,2.16-1.3-.42,1.28-3.98Zm7.04,1.89l67.08,21.65-1.4,4.33-67.08-21.65.7-2.16.7-2.16Zm-13.55-.95l-1.04-.34c-.52-.17-.8-.72-.63-1.24.13-.42.52-.68.94-.68.1,0,.2.02.3.05l1.04.34-.6,1.87Z"/><path class="uuid-12c2634d-7d5e-469c-b06a-76144221a406" d="m166.83,148.64c-.46-.75-4.67-7.33-11.65-8.6-2.73-.49-5.3-.34-7.58-.21-1.88.11-4.23.25-4.82-.3-4.88-4.52-11.87-7.31-17.43-4.37l-86.76-37.66s0,0,0,0l-6.64-2.98c-.72-.32-1.52-.35-2.26-.07-.17.07-.34.15-.49.24l-1.47-.66c-1.68-.75-3.55-.81-5.28-.15-1.72.66-3.09,1.94-3.84,3.62-.75,1.68-.81,3.55-.15,5.28.66,1.72,1.94,3.09,3.62,3.84l1.47.66c.03.18.08.36.14.53.28.74.83,1.32,1.55,1.65l6.64,2.98s0,0,0,0c0,0,0,0,0,0l86.85,37.7c.86,3.04,3.69,8.61,12.94,11,1.53.4,3.05.57,4.57.57,5.48,0,10.85-2.24,15.71-4.27,4.31-1.8,8.41-3.53,11.86-3.48,1.31.03,2.45-.67,3.07-1.78.62-1.11.6-2.47-.06-3.55ZM25.5,101.68l-1-.45c-.5-.22-.72-.81-.5-1.3.11-.24.3-.42.55-.51.11-.04.23-.07.35-.07.14,0,.27.03.4.09l1,.45-.81,1.79Zm13.13,2.97l.25-.55,83.04,35.99-1.86,4.15-83.04-35.99,1.61-3.6Zm-7.42-1.24l1.02-2.28,1.24.56-1.86,4.15-1.24-.56.84-1.87Zm118.06,47.57c-5.69,2.38-11.07,4.62-15.83,3.39-7.45-1.93-8.05-6.34-8.08-6.65-.01-.22-.05-.44-.1-.65l2.23-4.97c.16-.1.32-.2.47-.32,2.99-2.5,8.28,1.24,10.06,2.89,2.78,2.58,6.45,2.36,9.99,2.15,1.97-.12,4.02-.24,5.92.11,1.01.18,1.97.63,2.85,1.21-2.53.77-5.04,1.82-7.51,2.85Z"/></g></svg>