<?xml version="1.0" encoding="UTF-8"?><svg id="uuid-2d492380-7978-4b94-89cf-d42272e1fdd1" xmlns="http://www.w3.org/2000/svg" viewBox="0 0 200 200"><defs><style>.uuid-faea6dcb-2c2a-40b8-85d3-50276d0fba4d{fill:#fff;}</style></defs><g><path class="uuid-faea6dcb-2c2a-40b8-85d3-50276d0fba4d" d="m99.94,198.58c-52.58,0-95.83-41.1-98.45-93.58-.09-1.86,1.34-3.44,3.19-3.53,1.94-.08,3.44,1.34,3.53,3.19,2.45,48.89,42.73,87.18,91.73,87.18,20.24,0,39.43-6.45,55.5-18.66,1.48-1.12,3.59-.84,4.71.64,1.13,1.48.84,3.59-.64,4.71-17.25,13.1-37.85,20.03-59.57,20.03Z"/><path class="uuid-faea6dcb-2c2a-40b8-85d3-50276d0fba4d" d="m6.13,87.01c-.19,0-.39-.02-.58-.05-1.83-.32-3.06-2.06-2.74-3.89C7.28,57.25,22.27,33.85,43.93,18.87c1.53-1.05,3.62-.67,4.68.85,1.06,1.53.67,3.63-.85,4.68C27.58,38.37,13.61,60.17,9.44,84.22c-.28,1.64-1.7,2.79-3.31,2.79Z"/><path class="uuid-faea6dcb-2c2a-40b8-85d3-50276d0fba4d" d="m81.18,10c-1.57,0-2.98-1.11-3.3-2.71-.37-1.82.82-3.59,2.64-3.96,1.81-.36,3.65-.68,5.5-.94,1.83-.27,3.54,1.02,3.8,2.86.26,1.84-1.02,3.54-2.86,3.8-1.72.24-3.43.54-5.12.87-.22.04-.44.07-.66.07Z"/><path class="uuid-faea6dcb-2c2a-40b8-85d3-50276d0fba4d" d="m62.18,15.94c-1.3,0-2.54-.76-3.09-2.03-.74-1.71.05-3.69,1.75-4.43,2.11-.91,4.27-1.76,6.41-2.51,1.75-.61,3.68.31,4.29,2.06.62,1.75-.31,3.68-2.06,4.29-2,.7-4,1.49-5.97,2.34-.44.19-.89.28-1.34.28Z"/><path class="uuid-faea6dcb-2c2a-40b8-85d3-50276d0fba4d" d="m45.85,25c-1.07,0-2.12-.51-2.77-1.45-1.06-1.53-.68-3.63.85-4.68,1.53-1.06,3.08-2.07,4.67-3.04,1.58-.97,3.66-.47,4.62,1.12.97,1.59.47,3.66-1.12,4.62-1.48.9-2.93,1.85-4.35,2.83-.58.4-1.25.6-1.91.6Z"/><path class="uuid-faea6dcb-2c2a-40b8-85d3-50276d0fba4d" d="m195.15,103.37c-1.86,0-3.37-1.51-3.37-3.37,0-50.64-41.2-91.85-91.85-91.85-4.34,0-8.71.3-12.97.91-1.83.28-3.54-1.02-3.8-2.86s1.02-3.54,2.86-3.8c4.58-.65,9.26-.98,13.91-.98,54.36,0,98.58,44.22,98.58,98.58,0,1.86-1.51,3.37-3.37,3.37Z"/><path class="uuid-faea6dcb-2c2a-40b8-85d3-50276d0fba4d" d="m157.48,179.23c-1.02,0-2.02-.46-2.68-1.33-1.13-1.48-.84-3.59.64-4.71,1.38-1.05,2.73-2.13,4.05-3.25,1.42-1.21,3.54-1.03,4.74.38,1.21,1.41,1.04,3.54-.38,4.74-1.41,1.2-2.86,2.37-4.34,3.49-.61.46-1.32.69-2.03.69Z"/><path class="uuid-faea6dcb-2c2a-40b8-85d3-50276d0fba4d" d="m174.96,161.99c-.73,0-1.46-.23-2.07-.72-1.46-1.15-1.72-3.26-.58-4.73,1.9-2.42,3.69-4.97,5.34-7.58.99-1.57,3.07-2.04,4.64-1.05,1.57.99,2.04,3.07,1.05,4.64-1.77,2.8-3.69,5.54-5.73,8.14-.67.85-1.65,1.29-2.65,1.29Zm14.1-25.06c-.39,0-.8-.07-1.19-.22-1.74-.66-2.62-2.6-1.96-4.34,1.08-2.87,2.04-5.85,2.83-8.83.47-1.8,2.33-2.86,4.11-2.39,1.8.48,2.87,2.32,2.39,4.11-.85,3.21-1.87,6.4-3.03,9.48-.51,1.35-1.79,2.18-3.15,2.18Z"/><path class="uuid-faea6dcb-2c2a-40b8-85d3-50276d0fba4d" d="m195,108.75c-.06,0-.13,0-.19,0-1.86-.11-3.28-1.69-3.17-3.55.1-1.72.14-3.45.14-5.19,0-1.86,1.51-3.37,3.37-3.37s3.37,1.51,3.37,3.37-.05,3.73-.15,5.57c-.1,1.79-1.59,3.18-3.36,3.18Z"/></g><g><path class="uuid-faea6dcb-2c2a-40b8-85d3-50276d0fba4d" d="m95.9,51.25c-1.16-.6-2.55-.51-3.62.24l-29.58,20.69c-.36-.07-.73-.11-1.11-.11h-18.85c-3.24,0-5.87,2.63-5.87,5.87v43.93c0,3.24,2.63,5.87,5.87,5.87h18.85c.35,0,.69-.04,1.02-.09l29.48,23.66c.63.51,1.41.77,2.19.77.51,0,1.03-.11,1.51-.34,1.21-.58,1.99-1.81,1.99-3.16V54.36c0-1.3-.73-2.5-1.88-3.1Zm-52.03,27.82h16.59v41.67h-16.59v-41.67Zm46.91,62.21l-23.33-18.72v-45.17l23.33-16.32v80.2Z"/><path class="uuid-faea6dcb-2c2a-40b8-85d3-50276d0fba4d" d="m104.49,78.46c-1.63-1.04-3.8-.55-4.83,1.08-1.04,1.63-.55,3.79,1.08,4.83,4.32,2.74,6.9,7.43,6.9,12.54s-2.83,10.19-7.39,12.84c-1.67.97-2.24,3.12-1.26,4.79.65,1.12,1.82,1.74,3.03,1.74.6,0,1.2-.15,1.76-.48,6.7-3.9,10.87-11.14,10.87-18.89s-3.79-14.42-10.15-18.45Z"/><path class="uuid-faea6dcb-2c2a-40b8-85d3-50276d0fba4d" d="m116.34,67c-1.63-1.04-3.8-.55-4.83,1.08-1.04,1.63-.55,3.79,1.08,4.83,8.22,5.22,13.13,14.14,13.13,23.87s-5.39,19.39-14.06,24.43c-1.67.97-2.24,3.12-1.26,4.79.65,1.12,1.82,1.74,3.03,1.74.6,0,1.2-.15,1.76-.48,10.82-6.3,17.54-17.98,17.54-30.48s-6.12-23.26-16.37-29.78Z"/><path class="uuid-faea6dcb-2c2a-40b8-85d3-50276d0fba4d" d="m130.73,54.27c-1.63-1.04-3.8-.55-4.83,1.08-1.04,1.63-.55,3.79,1.08,4.83,12.55,7.97,20.04,21.6,20.04,36.45s-8.23,29.6-21.47,37.31c-1.67.97-2.24,3.12-1.26,4.79.65,1.12,1.82,1.74,3.03,1.74.6,0,1.2-.15,1.76-.48,15.39-8.96,24.95-25.58,24.95-43.36s-8.71-33.09-23.29-42.36Z"/></g></svg>