<?xml version="1.0" encoding="UTF-8"?><svg id="uuid-75a5e15b-7e21-409f-80a0-1132407f9529" xmlns="http://www.w3.org/2000/svg" viewBox="0 0 200 200"><defs><style>.uuid-7ff30080-6dde-405b-b22c-0dfc38d03731{fill:#fff;}</style></defs><g><path class="uuid-7ff30080-6dde-405b-b22c-0dfc38d03731" d="m99.94,198.58c-52.58,0-95.83-41.1-98.45-93.58-.09-1.86,1.34-3.44,3.19-3.53,1.94-.08,3.44,1.34,3.53,3.19,2.45,48.89,42.73,87.18,91.73,87.18,20.24,0,39.43-6.45,55.5-18.66,1.48-1.12,3.59-.84,4.71.64,1.13,1.48.84,3.59-.64,4.71-17.25,13.1-37.85,20.03-59.57,20.03Z"/><path class="uuid-7ff30080-6dde-405b-b22c-0dfc38d03731" d="m6.13,87.01c-.19,0-.39-.02-.58-.05-1.83-.32-3.06-2.06-2.74-3.89C7.28,57.25,22.27,33.85,43.93,18.87c1.53-1.05,3.62-.67,4.68.85,1.06,1.53.67,3.63-.85,4.68C27.58,38.37,13.61,60.17,9.44,84.22c-.28,1.64-1.7,2.79-3.31,2.79Z"/><path class="uuid-7ff30080-6dde-405b-b22c-0dfc38d03731" d="m81.18,10c-1.57,0-2.98-1.11-3.3-2.71-.37-1.82.82-3.59,2.64-3.96,1.81-.36,3.65-.68,5.5-.94,1.83-.27,3.54,1.02,3.8,2.86.26,1.84-1.02,3.54-2.86,3.8-1.72.24-3.43.54-5.12.87-.22.04-.44.07-.66.07Z"/><path class="uuid-7ff30080-6dde-405b-b22c-0dfc38d03731" d="m62.18,15.94c-1.3,0-2.54-.76-3.09-2.03-.74-1.71.05-3.69,1.75-4.43,2.11-.91,4.27-1.76,6.41-2.51,1.75-.61,3.68.31,4.29,2.06.62,1.75-.31,3.68-2.06,4.29-2,.7-4,1.49-5.97,2.34-.44.19-.89.28-1.34.28Z"/><path class="uuid-7ff30080-6dde-405b-b22c-0dfc38d03731" d="m45.85,25c-1.07,0-2.12-.51-2.77-1.45-1.06-1.53-.68-3.63.85-4.68,1.53-1.06,3.08-2.07,4.67-3.04,1.58-.97,3.66-.47,4.62,1.12.97,1.59.47,3.66-1.12,4.62-1.48.9-2.93,1.85-4.35,2.83-.58.4-1.25.6-1.91.6Z"/><path class="uuid-7ff30080-6dde-405b-b22c-0dfc38d03731" d="m195.15,103.37c-1.86,0-3.37-1.51-3.37-3.37,0-50.64-41.2-91.85-91.85-91.85-4.34,0-8.71.3-12.97.91-1.83.28-3.54-1.02-3.8-2.86s1.02-3.54,2.86-3.8c4.58-.65,9.26-.98,13.91-.98,54.36,0,98.58,44.22,98.58,98.58,0,1.86-1.51,3.37-3.37,3.37Z"/><path class="uuid-7ff30080-6dde-405b-b22c-0dfc38d03731" d="m157.48,179.23c-1.02,0-2.02-.46-2.68-1.33-1.13-1.48-.84-3.59.64-4.71,1.38-1.05,2.73-2.13,4.05-3.25,1.42-1.21,3.54-1.03,4.74.38,1.21,1.41,1.04,3.54-.38,4.74-1.41,1.2-2.86,2.37-4.34,3.49-.61.46-1.32.69-2.03.69Z"/><path class="uuid-7ff30080-6dde-405b-b22c-0dfc38d03731" d="m174.96,161.99c-.73,0-1.46-.23-2.07-.72-1.46-1.15-1.72-3.26-.58-4.73,1.9-2.42,3.69-4.97,5.34-7.58.99-1.57,3.07-2.04,4.64-1.05,1.57.99,2.04,3.07,1.05,4.64-1.77,2.8-3.69,5.54-5.73,8.14-.67.85-1.65,1.29-2.65,1.29Zm14.1-25.06c-.39,0-.8-.07-1.19-.22-1.74-.66-2.62-2.6-1.96-4.34,1.08-2.87,2.04-5.85,2.83-8.83.47-1.8,2.33-2.86,4.11-2.39,1.8.48,2.87,2.32,2.39,4.11-.85,3.21-1.87,6.4-3.03,9.48-.51,1.35-1.79,2.18-3.15,2.18Z"/><path class="uuid-7ff30080-6dde-405b-b22c-0dfc38d03731" d="m195,108.75c-.06,0-.13,0-.19,0-1.86-.11-3.28-1.69-3.17-3.55.1-1.72.14-3.45.14-5.19,0-1.86,1.51-3.37,3.37-3.37s3.37,1.51,3.37,3.37-.05,3.73-.15,5.57c-.1,1.79-1.59,3.18-3.36,3.18Z"/></g><path class="uuid-7ff30080-6dde-405b-b22c-0dfc38d03731" d="m151.84,85.18c0-.94-.38-1.84-1.04-2.49l-9.07-8.93c-1-.99-2.51-1.28-3.81-.73s-2.15,1.82-2.15,3.23v12.81h-5.7v-18.56h9.2c1.93,0,3.5-1.57,3.5-3.5v-25.56c0-1.93-1.57-3.5-3.5-3.5H60.73c-1.93,0-3.5,1.57-3.5,3.5v25.56c0,1.93,1.57,3.5,3.5,3.5h9.2v18.56h-5.7v-12.81c0-1.41-.85-2.68-2.15-3.23-1.3-.54-2.8-.25-3.81.73l-9.07,8.93c-.67.66-1.04,1.56-1.04,2.49v26.35s.01.08.01.12c0,.09.02.17.03.26.02.19.05.37.1.55.02.08.05.16.08.24.07.2.16.39.27.57.02.04.03.08.06.12.01.02.03.03.04.05.02.04.05.07.08.11.1.14.21.27.32.39.03.03.05.06.08.09.14.14.29.26.45.37.04.02.07.05.11.07.14.09.29.17.45.24.04.02.07.03.1.05.18.07.37.13.56.17.05.01.1.02.14.03.2.04.41.06.62.06h7.51l27.88,21.05-8.68,6.56c-1.54,1.17-1.85,3.36-.68,4.9.69.91,1.74,1.39,2.8,1.39.73,0,1.48-.23,2.11-.71l10.27-7.76,1.44,1.09-27.71,20.93c-1.54,1.17-1.85,3.36-.68,4.9.69.91,1.74,1.39,2.8,1.39.73,0,1.48-.23,2.11-.71l29.3-22.13,29.3,22.13c.63.48,1.37.71,2.11.71,1.06,0,2.11-.48,2.8-1.39,1.17-1.54.86-3.74-.68-4.9l-27.71-20.93,1.44-1.09,10.27,7.76c.63.48,1.37.71,2.11.71,1.06,0,2.11-.48,2.8-1.39,1.17-1.54.86-3.74-.68-4.9l-8.68-6.56,27.87-21.05h7.32c.21,0,.42-.03.62-.06.05,0,.1-.02.14-.03.19-.04.38-.1.56-.17.04-.01.07-.03.1-.05.16-.07.3-.15.45-.24.04-.02.07-.05.11-.07.16-.11.31-.24.45-.37.03-.03.05-.06.08-.09.12-.12.22-.25.32-.39.03-.04.05-.07.08-.11.01-.02.03-.03.04-.05.02-.04.03-.08.06-.12.11-.18.2-.37.27-.57.03-.08.05-.16.08-.24.05-.18.08-.36.1-.55,0-.09.02-.17.03-.26,0-.04.01-.08.01-.12v-26.35Zm-7,1.47v9.45l-2.07-4.32v-7.16l2.07,2.04Zm-80.62-41.69h71.55v18.56h-71.55v-18.56Zm12.7,25.56h46.16v18.56h-46.16v-18.56Zm-19.7,14.1v7.16l-2.07,4.32v-9.45l2.07-2.04Zm13.56,30.42h2.88l20.63,15.58-1.44,1.09-22.07-16.67Zm14.5,0h29.64l-14.82,11.19-14.82-11.19Zm14.82,22.14l-1.44-1.09,1.44-1.09,1.44,1.09-1.44,1.09Zm7.25-5.47l-1.44-1.09,20.63-15.58h2.88l-22.07,16.67Zm-50.13-23.67l5.72-11.96h74.14l5.72,11.96H57.21Z"/></svg>