<?xml version="1.0" encoding="UTF-8"?><svg id="uuid-54be7736-1dbc-4fa4-aeaf-e6e1e99542e6" xmlns="http://www.w3.org/2000/svg" viewBox="0 0 200 200"><defs><style>.uuid-41501367-75fd-4be4-b627-5e492aec120d{fill:#fff;}</style></defs><g><path class="uuid-41501367-75fd-4be4-b627-5e492aec120d" d="m99.94,198.58c-52.58,0-95.83-41.1-98.45-93.58-.09-1.86,1.34-3.44,3.19-3.53,1.94-.08,3.44,1.34,3.53,3.19,2.45,48.89,42.73,87.18,91.73,87.18,20.24,0,39.43-6.45,55.5-18.66,1.48-1.12,3.59-.84,4.71.64,1.13,1.48.84,3.59-.64,4.71-17.25,13.1-37.85,20.03-59.57,20.03Z"/><path class="uuid-41501367-75fd-4be4-b627-5e492aec120d" d="m6.13,87.01c-.19,0-.39-.02-.58-.05-1.83-.32-3.06-2.06-2.74-3.89C7.28,57.25,22.27,33.85,43.93,18.87c1.53-1.05,3.62-.67,4.68.85,1.06,1.53.67,3.63-.85,4.68C27.58,38.37,13.61,60.17,9.44,84.22c-.28,1.64-1.7,2.79-3.31,2.79Z"/><path class="uuid-41501367-75fd-4be4-b627-5e492aec120d" d="m81.18,10c-1.57,0-2.98-1.11-3.3-2.71-.37-1.82.82-3.59,2.64-3.96,1.81-.36,3.65-.68,5.5-.94,1.83-.27,3.54,1.02,3.8,2.86.26,1.84-1.02,3.54-2.86,3.8-1.72.24-3.43.54-5.12.87-.22.04-.44.07-.66.07Z"/><path class="uuid-41501367-75fd-4be4-b627-5e492aec120d" d="m62.18,15.94c-1.3,0-2.54-.76-3.09-2.03-.74-1.71.05-3.69,1.75-4.43,2.11-.91,4.27-1.76,6.41-2.51,1.75-.61,3.68.31,4.29,2.06.62,1.75-.31,3.68-2.06,4.29-2,.7-4,1.49-5.97,2.34-.44.19-.89.28-1.34.28Z"/><path class="uuid-41501367-75fd-4be4-b627-5e492aec120d" d="m45.85,25c-1.07,0-2.12-.51-2.77-1.45-1.06-1.53-.68-3.63.85-4.68,1.53-1.06,3.08-2.07,4.67-3.04,1.58-.97,3.66-.47,4.62,1.12.97,1.59.47,3.66-1.12,4.62-1.48.9-2.93,1.85-4.35,2.83-.58.4-1.25.6-1.91.6Z"/><path class="uuid-41501367-75fd-4be4-b627-5e492aec120d" d="m195.15,103.37c-1.86,0-3.37-1.51-3.37-3.37,0-50.64-41.2-91.85-91.85-91.85-4.34,0-8.71.3-12.97.91-1.83.28-3.54-1.02-3.8-2.86s1.02-3.54,2.86-3.8c4.58-.65,9.26-.98,13.91-.98,54.36,0,98.58,44.22,98.58,98.58,0,1.86-1.51,3.37-3.37,3.37Z"/><path class="uuid-41501367-75fd-4be4-b627-5e492aec120d" d="m157.48,179.23c-1.02,0-2.02-.46-2.68-1.33-1.13-1.48-.84-3.59.64-4.71,1.38-1.05,2.73-2.13,4.05-3.25,1.42-1.21,3.54-1.03,4.74.38,1.21,1.41,1.04,3.54-.38,4.74-1.41,1.2-2.86,2.37-4.34,3.49-.61.46-1.32.69-2.03.69Z"/><path class="uuid-41501367-75fd-4be4-b627-5e492aec120d" d="m174.96,161.99c-.73,0-1.46-.23-2.07-.72-1.46-1.15-1.72-3.26-.58-4.73,1.9-2.42,3.69-4.97,5.34-7.58.99-1.57,3.07-2.04,4.64-1.05,1.57.99,2.04,3.07,1.05,4.64-1.77,2.8-3.69,5.54-5.73,8.14-.67.85-1.65,1.29-2.65,1.29Zm14.1-25.06c-.39,0-.8-.07-1.19-.22-1.74-.66-2.62-2.6-1.96-4.34,1.08-2.87,2.04-5.85,2.83-8.83.47-1.8,2.33-2.86,4.11-2.39,1.8.48,2.87,2.32,2.39,4.11-.85,3.21-1.87,6.4-3.03,9.48-.51,1.35-1.79,2.18-3.15,2.18Z"/><path class="uuid-41501367-75fd-4be4-b627-5e492aec120d" d="m195,108.75c-.06,0-.13,0-.19,0-1.86-.11-3.28-1.69-3.17-3.55.1-1.72.14-3.45.14-5.19,0-1.86,1.51-3.37,3.37-3.37s3.37,1.51,3.37,3.37-.05,3.73-.15,5.57c-.1,1.79-1.59,3.18-3.36,3.18Z"/></g><g><path class="uuid-41501367-75fd-4be4-b627-5e492aec120d" d="m100.13,129.96c-3.33,0-6.42-1.14-9.73-3.59-.33-.24-.74-.34-1.15-.27-.4.07-.76.3-.99.64l-2.23,3.31c-.43.64-.31,1.49.28,1.98,2.3,1.94,6.05,3.98,10.38,4.64v6.95c0,.83.67,1.5,1.5,1.5h3.43c.83,0,1.5-.67,1.5-1.5v-7.04c6.07-1.11,10.06-5.07,10.06-10.39,0-6.92-6.5-9.4-11.73-11.4-3.28-1.25-6.38-2.43-6.38-4.14,0-2.96,3.62-3.18,4.73-3.18,3.23,0,4.98.94,7.46,2.93.62.5,1.52.42,2.05-.17l2.51-2.8c.54-.6.51-1.51-.07-2.07-1.99-1.95-4.55-3.93-8.63-4.6v-6.16c0-.83-.67-1.5-1.5-1.5h-3.43c-.83,0-1.5.67-1.5,1.5v6.23c-5.69,1.06-9.31,4.79-9.31,9.94,0,6.41,6.18,8.85,11.15,10.8,4.2,1.66,6.96,2.9,6.96,4.96,0,3.08-3.75,3.41-5.36,3.41Z"/><path class="uuid-41501367-75fd-4be4-b627-5e492aec120d" d="m147.93,156.56l-8.58-81.11c-.19-1.78-1.69-3.13-3.48-3.13h-16v-19.9c0-.13-.23-12.86-19.88-12.86-7.03,0-12.14,1.85-15.19,5.49-3.09,3.69-2.9,7.85-2.74,9.17v18.1h-16c-1.76,0-3.24,1.31-3.47,3.05l-10.53,81.11c-.13,1,.18,2,.84,2.76.66.76,1.62,1.19,2.63,1.19h13.68c1.93,0,3.5-1.57,3.5-3.5s-1.57-3.5-3.5-3.5h-9.7l9.62-74.11h12.92v5.86c0,1.93,1.57,3.5,3.5,3.5s3.5-1.57,3.5-3.5v-5.86h23.81v5.86c0,1.93,1.57,3.5,3.5,3.5s3.5-1.57,3.5-3.5v-5.86h12.85l7.84,74.11h-55.98c-1.93,0-3.5,1.57-3.5,3.5s1.57,3.5,3.5,3.5h59.87c.99,0,1.94-.42,2.6-1.16.66-.74.98-1.72.88-2.71Zm-58.86-84.24v-18.34c0-.21,0-.36-.05-.56-.01-.09-.3-2.2,1.21-3.94,1.65-1.91,5.03-2.92,9.76-2.92,9.87,0,12.74,3.74,12.88,5.86v19.9h-23.81Z"/></g></svg>