<?xml version="1.0" encoding="UTF-8"?><svg id="uuid-b8bff50f-f0f8-4901-86a5-15a6f190bd25" xmlns="http://www.w3.org/2000/svg" viewBox="0 0 200 200"><defs><style>.uuid-de076ddc-3df5-4175-b915-76bed2798905{fill:#fff;}</style></defs><g><path class="uuid-de076ddc-3df5-4175-b915-76bed2798905" d="m99.94,198.58c-52.58,0-95.83-41.1-98.45-93.58-.09-1.86,1.34-3.44,3.19-3.53,1.94-.08,3.44,1.34,3.53,3.19,2.45,48.89,42.73,87.18,91.73,87.18,20.24,0,39.43-6.45,55.5-18.66,1.48-1.12,3.59-.84,4.71.64,1.13,1.48.84,3.59-.64,4.71-17.25,13.1-37.85,20.03-59.57,20.03Z"/><path class="uuid-de076ddc-3df5-4175-b915-76bed2798905" d="m6.13,87.01c-.19,0-.39-.02-.58-.05-1.83-.32-3.06-2.06-2.74-3.89C7.28,57.25,22.27,33.85,43.93,18.87c1.53-1.05,3.62-.67,4.68.85,1.06,1.53.67,3.63-.85,4.68C27.58,38.37,13.61,60.17,9.44,84.22c-.28,1.64-1.7,2.79-3.31,2.79Z"/><path class="uuid-de076ddc-3df5-4175-b915-76bed2798905" d="m81.18,10c-1.57,0-2.98-1.11-3.3-2.71-.37-1.82.82-3.59,2.64-3.96,1.81-.36,3.65-.68,5.5-.94,1.83-.27,3.54,1.02,3.8,2.86.26,1.84-1.02,3.54-2.86,3.8-1.72.24-3.43.54-5.12.87-.22.04-.44.07-.66.07Z"/><path class="uuid-de076ddc-3df5-4175-b915-76bed2798905" d="m62.18,15.94c-1.3,0-2.54-.76-3.09-2.03-.74-1.71.05-3.69,1.75-4.43,2.11-.91,4.27-1.76,6.41-2.51,1.75-.61,3.68.31,4.29,2.06.62,1.75-.31,3.68-2.06,4.29-2,.7-4,1.49-5.97,2.34-.44.19-.89.28-1.34.28Z"/><path class="uuid-de076ddc-3df5-4175-b915-76bed2798905" d="m45.85,25c-1.07,0-2.12-.51-2.77-1.45-1.06-1.53-.68-3.63.85-4.68,1.53-1.06,3.08-2.07,4.67-3.04,1.58-.97,3.66-.47,4.62,1.12.97,1.59.47,3.66-1.12,4.62-1.48.9-2.93,1.85-4.35,2.83-.58.4-1.25.6-1.91.6Z"/><path class="uuid-de076ddc-3df5-4175-b915-76bed2798905" d="m195.15,103.37c-1.86,0-3.37-1.51-3.37-3.37,0-50.64-41.2-91.85-91.85-91.85-4.34,0-8.71.3-12.97.91-1.83.28-3.54-1.02-3.8-2.86s1.02-3.54,2.86-3.8c4.58-.65,9.26-.98,13.91-.98,54.36,0,98.58,44.22,98.58,98.58,0,1.86-1.51,3.37-3.37,3.37Z"/><path class="uuid-de076ddc-3df5-4175-b915-76bed2798905" d="m157.48,179.23c-1.02,0-2.02-.46-2.68-1.33-1.13-1.48-.84-3.59.64-4.71,1.38-1.05,2.73-2.13,4.05-3.25,1.42-1.21,3.54-1.03,4.74.38,1.21,1.41,1.04,3.54-.38,4.74-1.41,1.2-2.86,2.37-4.34,3.49-.61.46-1.32.69-2.03.69Z"/><path class="uuid-de076ddc-3df5-4175-b915-76bed2798905" d="m174.96,161.99c-.73,0-1.46-.23-2.07-.72-1.46-1.15-1.72-3.26-.58-4.73,1.9-2.42,3.69-4.97,5.34-7.58.99-1.57,3.07-2.04,4.64-1.05,1.57.99,2.04,3.07,1.05,4.64-1.77,2.8-3.69,5.54-5.73,8.14-.67.85-1.65,1.29-2.65,1.29Zm14.1-25.06c-.39,0-.8-.07-1.19-.22-1.74-.66-2.62-2.6-1.96-4.34,1.08-2.87,2.04-5.85,2.83-8.83.47-1.8,2.33-2.86,4.11-2.39,1.8.48,2.87,2.32,2.39,4.11-.85,3.21-1.87,6.4-3.03,9.48-.51,1.35-1.79,2.18-3.15,2.18Z"/><path class="uuid-de076ddc-3df5-4175-b915-76bed2798905" d="m195,108.75c-.06,0-.13,0-.19,0-1.86-.11-3.28-1.69-3.17-3.55.1-1.72.14-3.45.14-5.19,0-1.86,1.51-3.37,3.37-3.37s3.37,1.51,3.37,3.37-.05,3.73-.15,5.57c-.1,1.79-1.59,3.18-3.36,3.18Z"/></g><path class="uuid-de076ddc-3df5-4175-b915-76bed2798905" d="m148.76,56.29h-12.67c-1.93,0-3.5,1.57-3.5,3.5s1.57,3.5,3.5,3.5h12.67c1.97,0,3.57,1.6,3.57,3.57v55.93H47.67v-55.93c0-1.97,1.6-3.57,3.57-3.57h40.69c1.93,0,3.5-1.57,3.5-3.5s-1.57-3.5-3.5-3.5h-40.69c-5.83,0-10.58,4.75-10.58,10.58v59.43s0,0,0,0,0,0,0,0v3.74c0,5.83,4.75,10.58,10.58,10.58h37.95v2.9c-.95.2-1.8.8-2.3,1.66l-6.41,11.02h-10.41c-1.93,0-3.5,1.57-3.5,3.5s1.57,3.5,3.5,3.5h59.86c1.93,0,3.5-1.57,3.5-3.5s-1.57-3.5-3.5-3.5h-10.41l-6.41-11.02c-.5-.86-1.35-1.45-2.3-1.66v-2.9h37.95c5.83,0,10.58-4.75,10.58-10.58v-63.19c0-5.83-4.75-10.58-10.58-10.58Zm0,77.34H51.24c-1.97,0-3.57-1.6-3.57-3.57v-.25h104.67v.25c0,1.97-1.6,3.57-3.57,3.57Zm-44.96,9.82h-7.61v-2.81h7.61v2.81Zm4.27,7.01l3.35,5.75h-22.83l3.35-5.75h16.14Z"/><path class="uuid-de076ddc-3df5-4175-b915-76bed2798905" d="m68.18,120.46c.87-.12,8.59-1.35,12.54-7.24,1.54-2.3,2.44-4.72,3.22-6.86.65-1.77,1.46-3.98,2.2-4.3,6.09-2.66,11.45-7.95,10.98-14.22l41.48-40.39s0,0,0,0l5.38-4.89c.58-.53.93-1.26.97-2.05,0-.18,0-.37-.03-.55l1.2-1.09c1.36-1.24,2.16-2.93,2.25-4.78.09-1.84-.54-3.61-1.78-4.97-1.24-1.36-2.93-2.16-4.78-2.25-1.84-.09-3.61.54-4.97,1.78l-1.2,1.09c-.18-.04-.36-.07-.54-.08-.79-.04-1.55.23-2.13.76l-5.39,4.89s0,0,0,0c0,0,0,0,0,0l-41.55,40.46c-3.14-.43-9.36-.06-15.26,7.46-.97,1.24-1.74,2.57-2.35,3.96-2.19,5.02-2.29,10.84-2.37,16.11-.08,4.67-.13,9.12-1.56,12.26-.55,1.19-.36,2.51.4,3.53.76,1.02,2.02,1.54,3.28,1.36Zm71.84-86.69l.81-.74c.4-.36,1.03-.33,1.39.07.18.19.27.45.25.71,0,.12-.03.24-.08.35-.05.13-.14.24-.24.33l-.81.74-1.32-1.46Zm-7.97,10.84l.41.45-38.46,37.65-3.06-3.37,38.46-37.65,2.65,2.92Zm4.11-6.3l1.68,1.85-1.01.92-3.06-3.37,1.01-.92,1.38,1.52Zm-63.1,65.11c.1-6.17.2-11.99,3.23-15.86,4.75-6.05,9.03-4.84,9.33-4.75.21.08.42.13.64.16l3.66,4.03c.02.19.05.38.11.56,1.1,3.74-4.45,7.09-6.68,8.07-3.47,1.52-4.74,4.96-5.97,8.3-.68,1.86-1.39,3.78-2.47,5.38-.57.85-1.37,1.55-2.25,2.13.31-2.62.35-5.35.4-8.02Z"/></svg>