<?xml version="1.0" encoding="UTF-8"?><svg id="uuid-d1e93043-5983-4709-aa01-dece2bb3b4bd" xmlns="http://www.w3.org/2000/svg" viewBox="0 0 200 200"><defs><style>.uuid-2213b485-e8a7-44a2-8c03-82df0c08b1e5{fill:#fff;}</style></defs><g><path class="uuid-2213b485-e8a7-44a2-8c03-82df0c08b1e5" d="m99.94,198.58c-52.58,0-95.83-41.1-98.45-93.58-.09-1.86,1.34-3.44,3.19-3.53,1.94-.08,3.44,1.34,3.53,3.19,2.45,48.89,42.73,87.18,91.73,87.18,20.24,0,39.43-6.45,55.5-18.66,1.48-1.12,3.59-.84,4.71.64,1.13,1.48.84,3.59-.64,4.71-17.25,13.1-37.85,20.03-59.57,20.03Z"/><path class="uuid-2213b485-e8a7-44a2-8c03-82df0c08b1e5" d="m6.13,87.01c-.19,0-.39-.02-.58-.05-1.83-.32-3.06-2.06-2.74-3.89C7.28,57.25,22.27,33.85,43.93,18.87c1.53-1.05,3.62-.67,4.68.85,1.06,1.53.67,3.63-.85,4.68C27.58,38.37,13.61,60.17,9.44,84.22c-.28,1.64-1.7,2.79-3.31,2.79Z"/><path class="uuid-2213b485-e8a7-44a2-8c03-82df0c08b1e5" d="m81.18,10c-1.57,0-2.98-1.11-3.3-2.71-.37-1.82.82-3.59,2.64-3.96,1.81-.36,3.65-.68,5.5-.94,1.83-.27,3.54,1.02,3.8,2.86.26,1.84-1.02,3.54-2.86,3.8-1.72.24-3.43.54-5.12.87-.22.04-.44.07-.66.07Z"/><path class="uuid-2213b485-e8a7-44a2-8c03-82df0c08b1e5" d="m62.18,15.94c-1.3,0-2.54-.76-3.09-2.03-.74-1.71.05-3.69,1.75-4.43,2.11-.91,4.27-1.76,6.41-2.51,1.75-.61,3.68.31,4.29,2.06.62,1.75-.31,3.68-2.06,4.29-2,.7-4,1.49-5.97,2.34-.44.19-.89.28-1.34.28Z"/><path class="uuid-2213b485-e8a7-44a2-8c03-82df0c08b1e5" d="m45.85,25c-1.07,0-2.12-.51-2.77-1.45-1.06-1.53-.68-3.63.85-4.68,1.53-1.06,3.08-2.07,4.67-3.04,1.58-.97,3.66-.47,4.62,1.12.97,1.59.47,3.66-1.12,4.62-1.48.9-2.93,1.85-4.35,2.83-.58.4-1.25.6-1.91.6Z"/><path class="uuid-2213b485-e8a7-44a2-8c03-82df0c08b1e5" d="m195.15,103.37c-1.86,0-3.37-1.51-3.37-3.37,0-50.64-41.2-91.85-91.85-91.85-4.34,0-8.71.3-12.97.91-1.83.28-3.54-1.02-3.8-2.86s1.02-3.54,2.86-3.8c4.58-.65,9.26-.98,13.91-.98,54.36,0,98.58,44.22,98.58,98.58,0,1.86-1.51,3.37-3.37,3.37Z"/><path class="uuid-2213b485-e8a7-44a2-8c03-82df0c08b1e5" d="m157.48,179.23c-1.02,0-2.02-.46-2.68-1.33-1.13-1.48-.84-3.59.64-4.71,1.38-1.05,2.73-2.13,4.05-3.25,1.42-1.21,3.54-1.03,4.74.38,1.21,1.41,1.04,3.54-.38,4.74-1.41,1.2-2.86,2.37-4.34,3.49-.61.46-1.32.69-2.03.69Z"/><path class="uuid-2213b485-e8a7-44a2-8c03-82df0c08b1e5" d="m174.96,161.99c-.73,0-1.46-.23-2.07-.72-1.46-1.15-1.72-3.26-.58-4.73,1.9-2.42,3.69-4.97,5.34-7.58.99-1.57,3.07-2.04,4.64-1.05,1.57.99,2.04,3.07,1.05,4.64-1.77,2.8-3.69,5.54-5.73,8.14-.67.85-1.65,1.29-2.65,1.29Zm14.1-25.06c-.39,0-.8-.07-1.19-.22-1.74-.66-2.62-2.6-1.96-4.34,1.08-2.87,2.04-5.85,2.83-8.83.47-1.8,2.33-2.86,4.11-2.39,1.8.48,2.87,2.32,2.39,4.11-.85,3.21-1.87,6.4-3.03,9.48-.51,1.35-1.79,2.18-3.15,2.18Z"/><path class="uuid-2213b485-e8a7-44a2-8c03-82df0c08b1e5" d="m195,108.75c-.06,0-.13,0-.19,0-1.86-.11-3.28-1.69-3.17-3.55.1-1.72.14-3.45.14-5.19,0-1.86,1.51-3.37,3.37-3.37s3.37,1.51,3.37,3.37-.05,3.73-.15,5.57c-.1,1.79-1.59,3.18-3.36,3.18Z"/></g><g><g><path class="uuid-2213b485-e8a7-44a2-8c03-82df0c08b1e5" d="m83.93,170.62l-21.08-45.58,9.82-5.32,18.27-8.45,5.45,38.22c2.18,7.78-1.64,16.13-8.98,19.52l-3.47,1.6Zm-11.97-42.56l15.15,32.77c2.47-2.43,3.52-6.12,2.48-9.6l-.11-.51-4.15-29.15-9.62,4.45-3.75,2.04Z"/><g><path class="uuid-2213b485-e8a7-44a2-8c03-82df0c08b1e5" d="m112.23,106.59l-16.68-36.06,3.18-1.47c9.93-4.59,21.75-.24,26.35,9.7,2.22,4.81,2.44,10.2.62,15.18-1.83,4.98-5.48,8.96-10.29,11.18l-3.18,1.47Zm-7.18-32.21l10.4,22.48c1.65-1.41,2.92-3.23,3.69-5.33,1.18-3.23,1.04-6.72-.4-9.84-2.47-5.34-8.14-8.19-13.68-7.31Z"/><path class="uuid-2213b485-e8a7-44a2-8c03-82df0c08b1e5" d="m57.84,132.05c-2.58,0-5.16-.45-7.65-1.37-5.56-2.04-9.99-6.13-12.48-11.51-2.49-5.38-2.73-11.4-.69-16.96,2.07-5.57,6.15-10,11.51-12.48l26.45-12.23c3.08-1.42,5.42-3.96,6.58-7.15,1.17-3.19,1.03-6.64-.4-9.72l6.35-2.94,29.29,63.32s0,0,0,.01l-6.35,2.94c-1.43-3.1-3.97-5.44-7.14-6.59-3.19-1.18-6.63-1.04-9.72.38l-26.45,12.23c-2.97,1.37-6.13,2.06-9.3,2.06Zm29.65-57.74c-1.96,4.22-5.31,7.57-9.58,9.54l-26.45,12.23c-3.67,1.7-6.46,4.73-7.88,8.55-1.39,3.79-1.23,7.92.48,11.6,1.7,3.68,4.74,6.48,8.54,7.88,3.8,1.4,7.92,1.23,11.6-.48l26.45-12.23c4.28-1.98,9-2.36,13.47-1.12l-16.64-35.97Z"/><rect class="uuid-2213b485-e8a7-44a2-8c03-82df0c08b1e5" x="64.58" y="86.39" width="7" height="36.35" transform="translate(-37.61 38.24) rotate(-24.82)"/><path class="uuid-2213b485-e8a7-44a2-8c03-82df0c08b1e5" d="m118.96,131.36c-3,0-5.88-1.71-7.22-4.61l-32.38-70.02c-.89-1.93-.98-4.09-.24-6.09.73-1.99,2.2-3.57,4.12-4.46,1.93-.89,4.1-.98,6.09-.25,1.97.72,3.6,2.22,4.47,4.12l32.38,70.01c1.84,3.98.09,8.71-3.89,10.56-1.08.5-2.21.73-3.32.73Zm-32.38-78.91c-.12,0-.26.02-.41.09-.31.14-.44.4-.49.53-.06.17-.11.43.03.72l32.38,70.02c.21.46.8.67,1.26.46.48-.22.69-.8.48-1.26l-32.38-70.02c-.15-.32-.42-.45-.53-.49-.09-.03-.2-.06-.33-.06Z"/></g></g><g><path class="uuid-2213b485-e8a7-44a2-8c03-82df0c08b1e5" d="m116.61,62.22c-.55,0-1.11-.13-1.63-.41-1.71-.9-2.36-3.02-1.46-4.73l12.25-23.15c.9-1.71,3.02-2.36,4.73-1.46,1.71.9,2.36,3.02,1.46,4.73l-12.25,23.15c-.63,1.19-1.84,1.86-3.1,1.86Z"/><path class="uuid-2213b485-e8a7-44a2-8c03-82df0c08b1e5" d="m126.15,72.74c-.76,0-1.52-.25-2.17-.75-1.52-1.2-1.77-3.4-.58-4.92l11.13-14.08c1.2-1.52,3.4-1.78,4.92-.58,1.52,1.2,1.77,3.4.58,4.92l-11.13,14.08c-.69.87-1.71,1.33-2.75,1.33Z"/><path class="uuid-2213b485-e8a7-44a2-8c03-82df0c08b1e5" d="m159.86,106.08c-.25,0-.5-.03-.76-.08l-25.57-5.65c-1.89-.42-3.08-2.29-2.66-4.17.42-1.89,2.29-3.08,4.17-2.66l25.57,5.65c1.89.42,3.08,2.29,2.66,4.17-.36,1.63-1.81,2.75-3.41,2.75Z"/><path class="uuid-2213b485-e8a7-44a2-8c03-82df0c08b1e5" d="m150.38,86.98s-.08,0-.13,0l-17.94-.64c-1.93-.07-3.44-1.69-3.37-3.62s1.72-3.46,3.62-3.37l17.94.64c1.93.07,3.44,1.69,3.37,3.62-.07,1.89-1.62,3.38-3.5,3.38Z"/></g></g></svg>