<?xml version="1.0" encoding="UTF-8"?><svg id="uuid-36afed7b-fe7a-46e9-966f-d9306db6cb43" xmlns="http://www.w3.org/2000/svg" viewBox="0 0 200 200"><defs><style>.uuid-c8b27357-87bd-49d2-aa52-74c80855b553{fill:#fff;}</style></defs><g><path class="uuid-c8b27357-87bd-49d2-aa52-74c80855b553" d="m99.94,198.58c-52.58,0-95.83-41.1-98.45-93.58-.09-1.86,1.34-3.44,3.19-3.53,1.94-.08,3.44,1.34,3.53,3.19,2.45,48.89,42.73,87.18,91.73,87.18,20.24,0,39.43-6.45,55.5-18.66,1.48-1.12,3.59-.84,4.71.64,1.13,1.48.84,3.59-.64,4.71-17.25,13.1-37.85,20.03-59.57,20.03Z"/><path class="uuid-c8b27357-87bd-49d2-aa52-74c80855b553" d="m6.13,87.01c-.19,0-.39-.02-.58-.05-1.83-.32-3.06-2.06-2.74-3.89C7.28,57.25,22.27,33.85,43.93,18.87c1.53-1.05,3.62-.67,4.68.85,1.06,1.53.67,3.63-.85,4.68C27.58,38.37,13.61,60.17,9.44,84.22c-.28,1.64-1.7,2.79-3.31,2.79Z"/><path class="uuid-c8b27357-87bd-49d2-aa52-74c80855b553" d="m81.18,10c-1.57,0-2.98-1.11-3.3-2.71-.37-1.82.82-3.59,2.64-3.96,1.81-.36,3.65-.68,5.5-.94,1.83-.27,3.54,1.02,3.8,2.86.26,1.84-1.02,3.54-2.86,3.8-1.72.24-3.43.54-5.12.87-.22.04-.44.07-.66.07Z"/><path class="uuid-c8b27357-87bd-49d2-aa52-74c80855b553" d="m62.18,15.94c-1.3,0-2.54-.76-3.09-2.03-.74-1.71.05-3.69,1.75-4.43,2.11-.91,4.27-1.76,6.41-2.51,1.75-.61,3.68.31,4.29,2.06.62,1.75-.31,3.68-2.06,4.29-2,.7-4,1.49-5.97,2.34-.44.19-.89.28-1.34.28Z"/><path class="uuid-c8b27357-87bd-49d2-aa52-74c80855b553" d="m45.85,25c-1.07,0-2.12-.51-2.77-1.45-1.06-1.53-.68-3.63.85-4.68,1.53-1.06,3.08-2.07,4.67-3.04,1.58-.97,3.66-.47,4.62,1.12.97,1.59.47,3.66-1.12,4.62-1.48.9-2.93,1.85-4.35,2.83-.58.4-1.25.6-1.91.6Z"/><path class="uuid-c8b27357-87bd-49d2-aa52-74c80855b553" d="m195.15,103.37c-1.86,0-3.37-1.51-3.37-3.37,0-50.64-41.2-91.85-91.85-91.85-4.34,0-8.71.3-12.97.91-1.83.28-3.54-1.02-3.8-2.86s1.02-3.54,2.86-3.8c4.58-.65,9.26-.98,13.91-.98,54.36,0,98.58,44.22,98.58,98.58,0,1.86-1.51,3.37-3.37,3.37Z"/><path class="uuid-c8b27357-87bd-49d2-aa52-74c80855b553" d="m157.48,179.23c-1.02,0-2.02-.46-2.68-1.33-1.13-1.48-.84-3.59.64-4.71,1.38-1.05,2.73-2.13,4.05-3.25,1.42-1.21,3.54-1.03,4.74.38,1.21,1.41,1.04,3.54-.38,4.74-1.41,1.2-2.86,2.37-4.34,3.49-.61.46-1.32.69-2.03.69Z"/><path class="uuid-c8b27357-87bd-49d2-aa52-74c80855b553" d="m174.96,161.99c-.73,0-1.46-.23-2.07-.72-1.46-1.15-1.72-3.26-.58-4.73,1.9-2.42,3.69-4.97,5.34-7.58.99-1.57,3.07-2.04,4.64-1.05,1.57.99,2.04,3.07,1.05,4.64-1.77,2.8-3.69,5.54-5.73,8.14-.67.85-1.65,1.29-2.65,1.29Zm14.1-25.06c-.39,0-.8-.07-1.19-.22-1.74-.66-2.62-2.6-1.96-4.34,1.08-2.87,2.04-5.85,2.83-8.83.47-1.8,2.33-2.86,4.11-2.39,1.8.48,2.87,2.32,2.39,4.11-.85,3.21-1.87,6.4-3.03,9.48-.51,1.35-1.79,2.18-3.15,2.18Z"/><path class="uuid-c8b27357-87bd-49d2-aa52-74c80855b553" d="m195,108.75c-.06,0-.13,0-.19,0-1.86-.11-3.28-1.69-3.17-3.55.1-1.72.14-3.45.14-5.19,0-1.86,1.51-3.37,3.37-3.37s3.37,1.51,3.37,3.37-.05,3.73-.15,5.57c-.1,1.79-1.59,3.18-3.36,3.18Z"/></g><g><path class="uuid-c8b27357-87bd-49d2-aa52-74c80855b553" d="m152.23,43.34H47.77c-5.91,0-10.73,4.81-10.73,10.73v63.65s0,0,0,0,0,0,0,0v4.01c0,5.91,4.81,10.73,10.73,10.73h41.25v4.25c-1.05.06-2.01.63-2.55,1.54l-7.04,12.1h-11.49c-1.73,0-3.15,1.41-3.15,3.15s1.41,3.15,3.15,3.15h64.11c1.73,0,3.15-1.41,3.15-3.15s-1.41-3.15-3.15-3.15h-11.49l-7.04-12.1c-.53-.91-1.5-1.48-2.55-1.54v-4.25h41.25c5.91,0,10.73-4.81,10.73-10.73V54.07c0-5.91-4.81-10.73-10.73-10.73Zm-44.4,82.83h-60.05c-2.44,0-4.43-1.99-4.43-4.43v-.87h113.32v.87c0,2.44-1.99,4.43-4.43,4.43h-44.4Zm17.25-76.54h27.15c2.44,0,4.43,1.99,4.43,4.43v60.51H43.34v-60.51c0-2.44,1.99-4.43,4.43-4.43h77.3Zm-20.39,87.06h-9.36v-4.23h9.36v4.23Zm4.31,6.29l4.29,7.38h-26.57l4.29-7.38h17.98Z"/><path class="uuid-c8b27357-87bd-49d2-aa52-74c80855b553" d="m57.93,82.98l23.74,16.04c.17.11.36.17.56.17.16,0,.32-.04.47-.12.33-.17.53-.51.53-.88v-5.09c0-.33-.17-.64-.44-.83l-18.05-12.16,18.05-12.16c.28-.19.44-.5.44-.83v-5.09c0-.37-.2-.71-.53-.88-.33-.17-.72-.15-1.03.05l-23.74,16.04c-.27.19-.44.5-.44.83v4.07c0,.33.17.64.44.83Z"/><path class="uuid-c8b27357-87bd-49d2-aa52-74c80855b553" d="m88.2,109.21h4.42c.42,0,.79-.26.94-.65l19.6-51.99c.12-.31.07-.65-.11-.92-.19-.27-.49-.43-.82-.43h-4.42c-.42,0-.79.26-.94.65l-19.6,51.99c-.12.31-.07.65.11.92.19.27.49.43.82.43Z"/><path class="uuid-c8b27357-87bd-49d2-aa52-74c80855b553" d="m117.3,99.08c.15.08.31.12.47.12.2,0,.39-.06.56-.17l23.74-16.04c.28-.19.44-.5.44-.83v-4.07c0-.33-.17-.64-.44-.83l-23.74-16.04c-.31-.21-.7-.23-1.03-.05s-.53.51-.53.88v5.09c0,.33.17.64.44.83l18.05,12.16-18.05,12.16c-.28.19-.44.5-.44.83v5.09c0,.37.2.71.53.88Z"/></g></svg>