<?xml version="1.0" encoding="UTF-8"?><svg id="uuid-db7031d9-2456-494b-9a18-c3cf1cfbef90" xmlns="http://www.w3.org/2000/svg" viewBox="0 0 200 200"><defs><style>.uuid-64050bc7-995b-4006-9938-07f4f04a9ea9{fill:#fff;}</style></defs><g><path class="uuid-64050bc7-995b-4006-9938-07f4f04a9ea9" d="m99.94,198.58c-52.58,0-95.83-41.1-98.45-93.58-.09-1.86,1.34-3.44,3.19-3.53,1.94-.08,3.44,1.34,3.53,3.19,2.45,48.89,42.73,87.18,91.73,87.18,20.24,0,39.43-6.45,55.5-18.66,1.48-1.12,3.59-.84,4.71.64,1.13,1.48.84,3.59-.64,4.71-17.25,13.1-37.85,20.03-59.57,20.03Z"/><path class="uuid-64050bc7-995b-4006-9938-07f4f04a9ea9" d="m6.13,87.01c-.19,0-.39-.02-.58-.05-1.83-.32-3.06-2.06-2.74-3.89C7.28,57.25,22.27,33.85,43.93,18.87c1.53-1.05,3.62-.67,4.68.85,1.06,1.53.67,3.63-.85,4.68C27.58,38.37,13.61,60.17,9.44,84.22c-.28,1.64-1.7,2.79-3.31,2.79Z"/><path class="uuid-64050bc7-995b-4006-9938-07f4f04a9ea9" d="m81.18,10c-1.57,0-2.98-1.11-3.3-2.71-.37-1.82.82-3.59,2.64-3.96,1.81-.36,3.65-.68,5.5-.94,1.83-.27,3.54,1.02,3.8,2.86.26,1.84-1.02,3.54-2.86,3.8-1.72.24-3.43.54-5.12.87-.22.04-.44.07-.66.07Z"/><path class="uuid-64050bc7-995b-4006-9938-07f4f04a9ea9" d="m62.18,15.94c-1.3,0-2.54-.76-3.09-2.03-.74-1.71.05-3.69,1.75-4.43,2.11-.91,4.27-1.76,6.41-2.51,1.75-.61,3.68.31,4.29,2.06.62,1.75-.31,3.68-2.06,4.29-2,.7-4,1.49-5.97,2.34-.44.19-.89.28-1.34.28Z"/><path class="uuid-64050bc7-995b-4006-9938-07f4f04a9ea9" d="m45.85,25c-1.07,0-2.12-.51-2.77-1.45-1.06-1.53-.68-3.63.85-4.68,1.53-1.06,3.08-2.07,4.67-3.04,1.58-.97,3.66-.47,4.62,1.12.97,1.59.47,3.66-1.12,4.62-1.48.9-2.93,1.85-4.35,2.83-.58.4-1.25.6-1.91.6Z"/><path class="uuid-64050bc7-995b-4006-9938-07f4f04a9ea9" d="m195.15,103.37c-1.86,0-3.37-1.51-3.37-3.37,0-50.64-41.2-91.85-91.85-91.85-4.34,0-8.71.3-12.97.91-1.83.28-3.54-1.02-3.8-2.86s1.02-3.54,2.86-3.8c4.58-.65,9.26-.98,13.91-.98,54.36,0,98.58,44.22,98.58,98.58,0,1.86-1.51,3.37-3.37,3.37Z"/><path class="uuid-64050bc7-995b-4006-9938-07f4f04a9ea9" d="m157.48,179.23c-1.02,0-2.02-.46-2.68-1.33-1.13-1.48-.84-3.59.64-4.71,1.38-1.05,2.73-2.13,4.05-3.25,1.42-1.21,3.54-1.03,4.74.38,1.21,1.41,1.04,3.54-.38,4.74-1.41,1.2-2.86,2.37-4.34,3.49-.61.46-1.32.69-2.03.69Z"/><path class="uuid-64050bc7-995b-4006-9938-07f4f04a9ea9" d="m174.96,161.99c-.73,0-1.46-.23-2.07-.72-1.46-1.15-1.72-3.26-.58-4.73,1.9-2.42,3.69-4.97,5.34-7.58.99-1.57,3.07-2.04,4.64-1.05,1.57.99,2.04,3.07,1.05,4.64-1.77,2.8-3.69,5.54-5.73,8.14-.67.85-1.65,1.29-2.65,1.29Zm14.1-25.06c-.39,0-.8-.07-1.19-.22-1.74-.66-2.62-2.6-1.96-4.34,1.08-2.87,2.04-5.85,2.83-8.83.47-1.8,2.33-2.86,4.11-2.39,1.8.48,2.87,2.32,2.39,4.11-.85,3.21-1.87,6.4-3.03,9.48-.51,1.35-1.79,2.18-3.15,2.18Z"/><path class="uuid-64050bc7-995b-4006-9938-07f4f04a9ea9" d="m195,108.75c-.06,0-.13,0-.19,0-1.86-.11-3.28-1.69-3.17-3.55.1-1.72.14-3.45.14-5.19,0-1.86,1.51-3.37,3.37-3.37s3.37,1.51,3.37,3.37-.05,3.73-.15,5.57c-.1,1.79-1.59,3.18-3.36,3.18Z"/></g><g><path class="uuid-64050bc7-995b-4006-9938-07f4f04a9ea9" d="m148.03,138.09s.07-.08.11-.12c.36-.41.61-.89.75-1.41,0-.03.02-.07.03-.1.06-.27.1-.54.1-.82,0,0,0-.02,0-.02v-43.37l8.5-8.5,5.53-5.53c.68-.68,1.06-1.59,1.06-2.55,0-.2-.03-.4-.06-.6l1.01-1.01c1.53-1.53,2.31-3.59,2.21-5.8-.1-2.09-.99-4.07-2.5-5.58-1.52-1.52-3.5-2.41-5.58-2.5-2.21-.1-4.28.68-5.8,2.21l-1.01,1.01c-1.11-.19-2.29.14-3.15,1l-5.53,5.53-21.91,21.91c-.12-.01-.23-.04-.36-.04h-12.35c-1.99,0-3.61,1.62-3.61,3.61s1.62,3.61,3.61,3.61h5.53l-2.17,2.17c-.32-.1-.66-.16-1.01-.16h-2.34c-1.99,0-3.61,1.62-3.61,3.61,0,.97.39,1.85,1.02,2.5l-6.7,6.7v-19.42c0-1.93-1.57-3.5-3.5-3.5h-26.28c-1.93,0-3.5,1.57-3.5,3.5v22.93c0,1.93,1.57,3.5,3.5,3.5h22.77l-4.27,4.27h-18.5c-1.93,0-3.5,1.57-3.5,3.5v22.93c0,1.93,1.57,3.5,3.5,3.5h26.28c1.93,0,3.5-1.57,3.5-3.5v-10.02l29.44-29.44c.68-.68,1.06-1.59,1.06-2.55s-.38-1.87-1.06-2.55c-1.41-1.41-3.69-1.41-5.1,0l-27.21,27.21-3.64-3.64,52.97-52.97,3.64,3.64-17.32,17.32c-.68.68-1.06,1.59-1.06,2.55s.38,1.87,1.06,2.55c1.36,1.36,3.74,1.36,5.1,0l4.16-4.16v32.56h-27.25c-6.71,0-12.16,5.46-12.16,12.16v14.11h-40.02c-2.73,0-4.95-2.22-4.95-4.95v-4.18c0-1.99-1.62-3.61-3.61-3.61s-3.61,1.62-3.61,3.61v4.18c0,6.71,5.46,12.16,12.16,12.16h43.63c.72,0,1.41-.21,2-.61l39.41-26.27c.23-.15.43-.33.61-.53Zm-74.54-40.19h19.28v15.93h-19.28v-15.93Zm36.12,57.26v-10.98c0-2.73,2.22-4.95,4.95-4.95h18.95l-23.9,15.93Zm42.15-83.13l2.99,2.99.65.65-.43.43-3.64-3.64.43-.43Zm6.71-4.56c.07-.07.19-.12.36-.1.29.01.58.16.83.4.24.24.39.54.4.83,0,.09,0,.26-.1.36l-.53.53-1.49-1.49.53-.53Zm-68.32,70.14l-.48.15.15-.48.33.33Zm-16.65,10.41v-15.93h10.39l-3.18,10.1c-.4,1.29-.06,2.68.89,3.63.68.68,1.59,1.06,2.55,1.06.36,0,.73-.06,1.08-.17l7.54-2.37v3.67h-19.28Z"/><path class="uuid-64050bc7-995b-4006-9938-07f4f04a9ea9" d="m131.42,58.05h-22.35c-1.99,0-3.61,1.62-3.61,3.61s1.62,3.61,3.61,3.61h22.35c1.99,0,3.61-1.62,3.61-3.61s-1.62-3.61-3.61-3.61Z"/><path class="uuid-64050bc7-995b-4006-9938-07f4f04a9ea9" d="m135.02,71.61c0-1.99-1.62-3.61-3.61-3.61h-22.35c-1.99,0-3.61,1.62-3.61,3.61s1.62,3.61,3.61,3.61h22.35c1.99,0,3.61-1.62,3.61-3.61Z"/><path class="uuid-64050bc7-995b-4006-9938-07f4f04a9ea9" d="m109.06,77.59c-1.99,0-3.61,1.62-3.61,3.61s1.62,3.61,3.61,3.61h12.35c1.99,0,3.61-1.62,3.61-3.61s-1.62-3.61-3.61-3.61h-12.35Z"/><path class="uuid-64050bc7-995b-4006-9938-07f4f04a9ea9" d="m53.82,139.51c1.99,0,3.61-1.62,3.61-3.61V53.4c0-2.73,2.22-4.95,4.95-4.95h74.48c2.73,0,4.95,2.22,4.95,4.95v9.35c0,1.99,1.62,3.61,3.61,3.61s3.61-1.62,3.61-3.61v-9.35c0-6.71-5.46-12.17-12.17-12.17H62.37c-6.71,0-12.16,5.46-12.16,12.17v82.5c0,1.99,1.62,3.61,3.61,3.61Z"/><path class="uuid-64050bc7-995b-4006-9938-07f4f04a9ea9" d="m164.87,88.83h-.76v-.76c0-1.99-1.62-3.61-3.61-3.61s-3.61,1.62-3.61,3.61v.76h-.76c-1.99,0-3.61,1.62-3.61,3.61s1.62,3.61,3.61,3.61h.76v.76c0,1.99,1.62,3.61,3.61,3.61s3.61-1.62,3.61-3.61v-.76h.76c1.99,0,3.61-1.62,3.61-3.61s-1.62-3.61-3.61-3.61Z"/><path class="uuid-64050bc7-995b-4006-9938-07f4f04a9ea9" d="m152.04,145.15h-.76v-.76c0-1.99-1.62-3.61-3.61-3.61s-3.61,1.62-3.61,3.61v.76h-.76c-1.99,0-3.61,1.62-3.61,3.61s1.62,3.61,3.61,3.61h.76v.76c0,1.99,1.62,3.61,3.61,3.61s3.61-1.62,3.61-3.61v-.76h.76c1.99,0,3.61-1.62,3.61-3.61s-1.62-3.61-3.61-3.61Z"/><path class="uuid-64050bc7-995b-4006-9938-07f4f04a9ea9" d="m69.99,56.65c-1.93,0-3.5,1.57-3.5,3.5v22.93c0,1.93,1.57,3.5,3.5,3.5h26.28c1.93,0,3.5-1.57,3.5-3.5v-22.93c0-1.93-1.57-3.5-3.5-3.5h-26.28Zm22.78,22.93h-19.28v-15.93h19.28v15.93Z"/></g></svg>